<svg xmlns="http://www.w3.org/2000/svg" width="43" height="43" viewBox="0 0 43 43" fill="none">
<g xmlns="http://www.w3.org/2000/svg" transform="matrix(1.3333333,0,0,-1.3333333,0,42.666667)" id="g10"><g id="g12"><path id="path14" style="fill:#631fff;fill-opacity:1;fill-rule:nonzero;stroke:none" d="M 32,16 C 32,7.163445 24.836555,0 16,0 7.163444,0 0,7.163445 0,16 c 0,8.836555 7.163444,16 16,16 8.836555,0 16,-7.163445 16,-16 z"/></g><g transform="translate(16,7.5)" id="g16"><path id="path18" style="fill:#ffffff;fill-opacity:1;fill-rule:nonzero;stroke:none" d="m 0.75,15.5 c 0,0.414213 -0.335786,0.75 -0.75,0.75 -0.414214,0 -0.75,-0.335787 -0.75,-0.75 z m -1.5,-14 c 0,-0.414213 0.335786,-0.75 0.75,-0.75 0.414214,0 0.75,0.335787 0.75,0.75 z m 0,14 v -14 h 1.5 v 14 z"/></g><g transform="translate(9,14.5)" id="g20"><path id="path22" style="fill:#ffffff;fill-opacity:1;fill-rule:nonzero;stroke:none" d="M 0,2.25 C -0.414214,2.25 -0.75,1.914214 -0.75,1.5 -0.75,1.085786 -0.414214,0.75 0,0.75 Z m 14,-1.5 c 0.414213,0 0.75,0.335786 0.75,0.75 0,0.414214 -0.335787,0.75 -0.75,0.75 z m -14,0 h 14 v 1.5 H 0 Z"/></g></g></svg>