<svg width="192" height="92" viewBox="0 0 192 92" fill="none" xmlns="http://www.w3.org/2000/svg"><g clip-path="url(#i112)"><g clip-path="url(#i111)" fill="#AA85FF"><path d="M98.461 35.384h-4.888c-.028 1.416.014 2.864 0 4.327h-5.599V.042h7.855v4.321c-.668.032-1.448-.036-2.256 0v4.374h4.888V4.363h2.465v4.374h2.674c-.069.021 0 0 0 0V4.363h2.549V.043h2.799v4.32h2.688V.043c.864-.016 1.518.015 2.423 0v4.32h2.354c.292.095 0 0 0 0v4.374h2.925V4.363h2.896V.043c2.507-.132 4.819.068 7.34 0v4.32h-2.228v8.974h2.27v4.347h-4.819v13.342h-2.576v4.353h4.902v-4.352c.863-.016 1.601.015 2.465 0v8.684h-13.175v-4.327h-2.354s.042-1.41 0-2.12c-.041-.738 0-2.238 0-2.238h-2.423v-4.594h2.423v4.595h5.279v-4.595h-2.925v-4.38h-4.777v-8.71c0-.042-.07.037 0 0 .07-.042-.097.037 0 0h2.423v4.348h2.354s.056-1.548 0-2.258c-.042-.695 0-2.095 0-2.095h-2.354c-.055-1.426 0-4.6 0-4.6h-5.111v4.6h-2.799v4.347H103.6v-4.347h-2.674v4.347h-7.367v4.327l-2.395.052v4.364h2.395v4.594h4.888c.014.01.014 2.937.014 4.363Zm20.877-17.694v8.747h2.896V17.69h-2.896Zm-25.765-4.348V8.737h-2.396v4.6h2.396v.005Zm28.661-4.605v4.6h2.577v-4.6h-2.577ZM69.719 31.032V17.689h-2.452v8.748h-2.34v-4.348c-1.838-.01-3.565-.026-5.292-.031-1.754-.005-3.51 0-5.39 0v-4.369s1.366.058 2.229 0v-4.347c-.724-.158-2.34 0-2.34 0v-4.6H49.19V4.368h2.451c0-.7 0-1.405.014-2.11V.053h2.382v4.32h2.507V.054h5.654v4.32h2.507v4.374c.863.053 1.615-.057 2.507 0v4.6h2.409V.053h8.245v4.32h7.311v4.374h-2.172v4.6h2.27v4.348h-7.117V8.742h-2.507v13.31h4.777v4.385h-4.902v4.595h-5.807Zm-7.326-13.343h2.41v-4.352h-2.396c-.014 1.431-.014 2.92-.014 4.352Zm-2.66-8.952V4.363c-.697-.131-1.337.163-2.187 0v4.374h2.187ZM153.557 17.69h-2.841v4.326l-2.952.042v4.379h-4.944v-4.31h-2.465v4.31h2.465c.055 1.552 0 3.042 0 4.595h-4.93v4.352h-2.354V39.716h-3.189V.047h3.189v4.321h4.833V.048h2.465v8.694h2.395V4.368h2.535V.048h5.793v4.32h2.424v4.374c-.697.042-1.407-.063-2.424 0v8.947Zm-15.667 0h12.826V8.736h-2.952v4.6c-1.755 0-3.329-.005-4.944 0-1.588.005-3.371-.01-4.93 0 0 1.52.097 2.905 0 4.352h-2.354v4.327h2.354c0-1.458-.098-2.848 0-4.327Zm0 8.747h-2.354v4.595h2.354v-4.595ZM13.022 22.058v8.974s1.56-.032 2.34 0v8.684H0V.047c1.964-.052 4.108.006 6.225 0 2.173-.005 4.345 0 6.797 0v4.321h-2.465c0 .821-.112 4.374-.112 4.374h2.577v4.6h-2.465v8.721h2.465v-.005Zm-8.343-8.716v-4.6H2.187l.097 4.6h2.52v8.721H7.27v-8.72h2.298v-4.6H7.27v4.6H4.68Zm2.59 17.69h2.466l-.028-4.595H7.27v4.595ZM31.055 35.384c.055 1.395.055 4.327.055 4.327h-5.626v-8.685H20.54v8.685h-2.59V26.43h2.464v-4.378h10.78v4.379h2.214v-8.748h-4.777v-4.347h12.952l.195 4.347h-5.57v4.321c.668.027 1.323.058 2.13.09v4.337h3.329v4.594h-3.134v8.685h-2.228s-.111.031-.111 0c-.014-1.38-.014-2.843-.014-4.327h-5.125c-.056-1.42-.056-4.352-.056-4.352H28.63l.195 4.352h2.229Zm-2.535-4.352v-4.595h-2.424l.293 4.595h2.13Z"></path><path d="M49.173 8.737v4.6c-.724.053-1.462-.063-2.34 0v17.69h7.215v4.352h3.231v4.326h-5.613V35.38h-4.818v4.326h-2.48V.037h4.805v4.32h-2.465c0 .822-.041 1.532.014 2.248.042.7.167 2.127.167 2.127s1.602.005 2.284.005ZM20.415 4.363v4.374h8.217v4.6h-5.835v4.347c-.892.032-1.532-.031-2.382 0v4.369H17.95v4.379h-2.284s-.181-3.558-.181-4.38H13.02v-8.72c1.63-.11 4.93 0 4.93 0V4.358c.822.005 1.643.005 2.465.005ZM111.652 35.384h-8.036v-4.352h-2.674v-8.974h5.222v-4.369h2.8v4.369h2.688v4.379h-8.036c0 .868-.042 1.61 0 2.374.042.752 0 2.22 0 2.22h8.036v4.353ZM38.352 4.363H33.66v4.374c-.877.016-1.615-.016-2.507 0V4.363H25.47V.043h12.882v4.32ZM80.398 31.032v8.684c-1.671.158-3.412-.016-5.125 0-1.755.016-3.524 0-5.557 0v-4.327h8.203s-.014-3.052.028-4.352c1.086-.005 1.768-.005 2.45-.005ZM158.474 31.032h-4.917v-4.595c.697-.042 1.491.058 2.424 0v-4.38h2.493v8.975ZM62.322 31.032h2.395v4.352h2.535v4.327h-4.93v-8.68ZM62.195 26.437h-5.529v4.595h5.53v-4.595Z"></path><path d="M49.313 17.69H51.5v8.747h-2.187v-8.748ZM147.764 35.384h2.939v4.327c-.878.015-1.797-.021-2.939 0v-4.327ZM80.398 26.437h2.312l.153 4.595h-2.465v-4.595ZM20.515 4.363V.043H22.7v4.32h-2.186ZM13.02 4.363h2.465c0 .71-.014 4.38-.014 4.38l-2.451-.006V4.363ZM155.981 17.69v-4.348h2.493v4.347h-2.493ZM67.251 35.384v-4.352h2.465v4.352h-2.465ZM155.981 22.058h-2.424s.056-1.474 0-2.21c-.041-.711 0-2.159 0-2.159h2.424v4.369ZM15.485 4.363V.043h2.465v4.32h-2.465ZM98.462 35.384h2.465v4.327h-2.465v-4.327ZM114.062 35.384v4.327h-2.424v-4.327h2.424ZM137.89 35.384h2.479s-.041 1.405 0 2.1c.056.71 0 1.448 0 2.227h-2.479v-4.327ZM142.82 31.032h2.395v4.352h-2.395v-4.352ZM137.891 17.69v4.326h-2.354V17.69h2.354ZM7.268 13.342v8.721H4.803v-8.721h2.465ZM20.414 22.058v-4.369c.836-.031 1.476.032 2.381 0v-4.347h5.836v4.347h4.777v8.748h-2.215v-4.38H20.415ZM17.95 26.437v-4.38h2.464v4.38H17.95Z"></path><path d="M155.981 22.058v-4.369h2.493v4.369h-2.493Z"></path></g></g><rect x="1.5" y="1.5" width="155.261" height="37" rx="2.5" stroke="#190052" stroke-width="3"></rect><g clip-path="url(#i110)" fill="#AA85FF"><path d="M9.717 52H6.95v39.668h2.767V52ZM13.9 52h-1.738v40H13.9V52ZM24.325 52h-1.738v40h1.738V52ZM120.917 52h-2.767v39.668h2.767V52ZM60.105 52h-2.767v39.668h2.767V52ZM86.167 52H83.4v39.668h2.767V52ZM112.23 52h-2.767v39.668h2.767V52ZM140.03 52h-2.768v39.668h2.768V52ZM55.6 52h-3.475v40H55.6V52ZM43.438 52h-5.213v40h5.212V52ZM31.275 52h-5.212v40h5.212V52ZM135.525 52h-5.213v40h5.213V52ZM151.162 52h-5.212v40h5.212V52ZM74.713 52h-3.475v40h3.475V52ZM100.775 52H97.3v40h3.475V52ZM105.988 52h-3.475v40h3.475V52ZM34.75 52h-1.737v40h1.737V52ZM69.5 52h-1.737v40H69.5V52ZM20.85 52h-1.738v40h1.738V52ZM126.837 52H125.1v40h1.737V52ZM63.056 52h-1.738v40h1.738V52ZM89.118 52h-1.737v40h1.737V52ZM92.088 52H90.35v40h1.738V52ZM115.181 52h-1.738v40h1.738V52ZM142.981 52h-1.738v40h1.738V52Z"></path></g><rect x="1.5" y="53.5" width="155.261" height="37" rx="2.5" stroke="#190052" stroke-width="3"></rect><path class="no-theme" d="m188 14-11 11-5-5" stroke="#35A260" stroke-width="2" stroke-linecap="round" stroke-linejoin="round"></path><path class="no-theme" d="m186 66-12 12m0-12 12 12" stroke="#EB0744" stroke-width="2" stroke-linecap="round" stroke-linejoin="round"></path><defs><clipPath id="i112"><rect width="158.261" height="40" rx="4" fill="#fff"></rect></clipPath><clipPath id="i111"><rect width="305" height="40" rx="4" fill="#fff"></rect></clipPath><clipPath id="i110"><rect y="52" width="158.261" height="40" rx="4" fill="#fff"></rect></clipPath></defs></svg>