<svg width="159" height="110" viewBox="0 0 159 110" fill="none" xmlns="http://www.w3.org/2000/svg"><g clip-path="url(#i18)" stroke="#8652FF" stroke-width="2"><path d="M13.3 1h-8a4 4 0 0 0-4 4v8M145.3 109h8a4 4 0 0 0 4-4v-8M157.3 13V5a4 4 0 0 0-4-4h-8M1.3 97v8a4 4 0 0 0 4 4h8"></path></g><path d="M54.989 40.157a9.144 9.144 0 0 1-4.765 2.55 9.502 9.502 0 0 1-5.45-.529l-.657-.268a5.87 5.87 0 0 0-4.877.192 5.48 5.48 0 0 0-1.88 1.56 5.091 5.091 0 0 0-.964 2.18l-1.325 7.353c-1.526-8.338-.674-14.68 2.56-19.029 4.848-6.52 16.5-8.862 19.564-1.69 5.02 1.615 7.64 4.705 7.859 9.268 1.638 2.779 1.929 6.595.873 11.451l-1.247-7.833c-.284-1.782-1.162-3.432-2.507-4.712a9.198 9.198 0 0 0-4.976-2.404l-.295-.045-1.913 1.956ZM28.669 72.81a91.595 91.595 0 0 1 43.661 0v8.946H28.668v-8.947Z" fill="#8652FF"></path><path d="M42.64 68.735v2.997l.289.233c2.16 1.742 4.92 2.68 7.761 2.636 2.842-.043 5.57-1.063 7.669-2.869v-2.725M42.64 70.643c-3.474 0-6.257.476-9.589 1.41l-3.71 1.043m29.69-2.453c3.474 0 6.929.476 10.26 1.41l3.712 1.043M34.945 51.014l.126 5.336c0 2.375.636 4.713 1.848 6.795 1.212 2.083 2.962 3.845 5.087 5.121l2.295 1.378a12.052 12.052 0 0 0 6.198 1.704c2.196 0 4.347-.591 6.198-1.704l2.297-1.378c2.126-1.277 3.875-3.038 5.087-5.12a13.497 13.497 0 0 0 1.846-6.796v-6.427m-30.982 1.091.717.02c-1.32.31-3.044 1.424-3.044 2.707 0 .623.22 1.228.628 1.718.429.517 1.033.861 1.7 1.007v-5.452Zm.126 2.727h-.58m32.017 0h-.58m.671 2.725.082-.018a2.981 2.981 0 0 0 1.618-.989c.407-.49.628-1.095.628-1.718 0-1.283-.927-2.398-2.246-2.707l-.082-.02v5.452Zm-10.938-16.31 1.914-1.955.294.045a9.197 9.197 0 0 1 4.976 2.404c1.345 1.28 2.224 2.93 2.507 4.712l1.247 7.833c1.056-4.856.765-8.672-.873-11.451-.218-4.563-2.838-7.653-7.86-9.269-3.063-7.171-14.715-4.83-19.564 1.691-3.233 4.348-4.085 10.691-2.559 19.03l1.325-7.355a5.093 5.093 0 0 1 .965-2.179 5.482 5.482 0 0 1 1.88-1.56 5.869 5.869 0 0 1 4.877-.192l.656.269c1.714.706 3.62.89 5.45.528a9.144 9.144 0 0 0 4.765-2.55Z" stroke="#000000" stroke-width="2" stroke-linecap="round" stroke-linejoin="round"></path><path d="M83.39 31.363h36.365m-36.364 9.091h18.182m-18.184 9.091h27.273m6.364 29.091h6.363m-27.272 0h14.545m1.818-7.272 11.104.098m-20.195-.099h3.637m-16.364 0h6.364" stroke="#8652FF" stroke-width="3" stroke-linecap="round" stroke-linejoin="round"></path><rect x="14.3" y="15" width="130.909" height="80" rx="4" stroke="#000000" stroke-width="2"></rect><defs><clipPath id="i18"><path fill="#fff" transform="translate(.3)" d="M0 0h158.4v110H0z"></path></clipPath></defs></svg>