<svg width="155" height="105" viewBox="0 0 155 105" fill="none" xmlns="http://www.w3.org/2000/svg">
<path d="M46.5454 45.1367C45.2182 46.5464 43.4752 47.5158 41.5591 47.9099C39.6431 48.304 37.6492 48.1032 35.8551 47.3355L35.1677 47.0437C34.3566 46.6966 33.4755 46.5351 32.5912 46.5712C31.7069 46.6074 30.8426 46.8403 30.0639 47.2523C29.2852 47.6643 28.6125 48.2446 28.0969 48.9492C27.5812 49.6538 27.2361 50.4641 27.0878 51.3187L25.7011 59.3162C24.1038 50.2485 24.9958 43.3504 28.3792 38.622C33.4532 31.5312 45.6475 28.9841 48.854 36.7831C54.1088 38.5402 56.8504 41.9007 57.0789 46.8627C58.7934 49.8846 59.0974 54.0351 57.9928 59.3162L56.6875 50.7972C56.3907 48.8598 55.4716 47.0652 54.0635 45.6738C52.6554 44.2823 50.8314 43.3663 48.856 43.0585L48.548 43.0099L46.5454 45.1367V45.1367ZM19 80.6467C33.9806 76.8191 49.7132 76.8191 64.6939 80.6467V90.376H19V80.6467Z" fill="#AA85FF"/>
<path d="M75.6208 36.1702H114.361M75.6208 45.8995H94.4944M75.6208 55.6288H104.428M111.381 86.7626H118.335M89.5276 86.7626H104.428M107.408 78.9791H118.335M97.4744 78.9791H100.454M83.5676 78.9791H90.521M33.6222 76.216V79.4753L33.9242 79.7283C36.1842 81.6222 39.073 82.6419 42.047 82.5953C45.0209 82.5487 47.875 81.4391 50.072 79.4753V76.5118M25.7013 55.7572V62.7468C25.7013 65.3302 26.3663 67.872 27.6348 70.1371C28.9033 72.4023 30.7343 74.3176 32.9586 75.7062L35.3605 77.2045C37.2986 78.4142 39.5489 79.0569 41.8471 79.0569C44.1452 79.0569 46.3956 78.4142 48.3336 77.2045L50.7375 75.7062C52.9615 74.3174 54.7921 72.4019 56.0602 70.1368C57.3283 67.8717 57.993 65.3301 57.9929 62.7468V55.7572M25.7013 59.9097H25.0933M58.6008 59.9097H57.9929M34.3255 78.2903C30.6899 78.2903 27.0741 78.8079 23.5874 79.8236L19.7035 80.9581L34.3255 78.2903ZM50.7753 78.2903C54.4109 78.2903 58.0267 78.8079 61.5133 79.8236L65.3973 80.9581L50.7753 78.2903ZM58.6962 62.8732L58.7816 62.8538C59.4527 62.6904 60.0487 62.3118 60.4746 61.7783C60.9005 61.2448 61.1319 60.587 61.1319 59.9097C61.1319 58.5145 60.1624 57.3022 58.7816 56.9656L58.6962 56.9442V62.8732ZM47.2489 45.1367L49.2515 43.0099L49.5594 43.0585C51.5348 43.3663 53.3588 44.2824 54.767 45.6738C56.1751 47.0652 57.0942 48.8598 57.391 50.7972L58.6962 59.3162C59.8008 54.0351 59.4969 49.8846 57.7823 46.8627C57.5539 41.9007 54.8122 38.5402 49.5574 36.7831C46.3509 28.9841 34.1566 31.5312 29.0826 38.622C25.6993 43.3504 24.8073 50.2485 26.4046 59.3162L27.7913 51.3187C27.9396 50.4641 28.2847 49.6538 28.8003 48.9492C29.316 48.2446 29.9887 47.6643 30.7674 47.2523C31.5461 46.8403 32.4104 46.6074 33.2947 46.5712C34.179 46.5351 35.0601 46.6966 35.8711 47.0437L36.5585 47.3355C38.3527 48.1032 40.3465 48.304 42.2626 47.9099C44.1787 47.5158 45.9216 46.5464 47.2489 45.1367ZM26.4046 62.8732L26.3191 62.8538C25.6481 62.6904 25.0521 62.3118 24.6262 61.7783C24.2003 61.2448 23.9689 60.587 23.9689 59.9097C23.9689 58.5145 24.9384 57.3022 26.3191 56.9656L26.4046 56.9442V62.8732Z" stroke="#190052" stroke-width="4" stroke-linecap="round" stroke-linejoin="round"/>
<path d="M75.6208 36.1702H114.361M75.6208 45.8995H94.4944M75.6208 55.6288H104.428M111.381 86.7626H118.335M89.5276 86.7626H104.428M107.408 78.9791H118.335M97.4744 78.9791H100.454M83.5676 78.9791H90.521M33.6222 76.216V79.4753L33.9242 79.7283C36.1842 81.6222 39.073 82.6419 42.047 82.5953C45.0209 82.5487 47.875 81.4391 50.072 79.4753V76.5118M25.7013 55.7572V62.7468C25.7013 65.3302 26.3663 67.872 27.6348 70.1371C28.9033 72.4023 30.7343 74.3176 32.9586 75.7062L35.3605 77.2045C37.2986 78.4142 39.5489 79.0569 41.8471 79.0569C44.1452 79.0569 46.3956 78.4142 48.3336 77.2045L50.7375 75.7062C52.9615 74.3174 54.7921 72.4019 56.0602 70.1368C57.3283 67.8717 57.993 65.3301 57.9929 62.7468V55.7572M25.7013 59.9097H25.0933M58.6008 59.9097H57.9929M34.3255 78.2903C30.6899 78.2903 27.0741 78.8079 23.5874 79.8236L19.7035 80.9581L34.3255 78.2903ZM50.7753 78.2903C54.4109 78.2903 58.0267 78.8079 61.5133 79.8236L65.3973 80.9581L50.7753 78.2903ZM58.6962 62.8732L58.7816 62.8538C59.4527 62.6904 60.0487 62.3118 60.4746 61.7783C60.9005 61.2448 61.1319 60.587 61.1319 59.9097C61.1319 58.5145 60.1624 57.3022 58.7816 56.9656L58.6962 56.9442V62.8732ZM47.2489 45.1367L49.2515 43.0099L49.5594 43.0585C51.5348 43.3663 53.3588 44.2824 54.767 45.6738C56.1751 47.0652 57.0942 48.8598 57.391 50.7972L58.6962 59.3162C59.8008 54.0351 59.4969 49.8846 57.7823 46.8627C57.5539 41.9007 54.8122 38.5402 49.5574 36.7831C46.3509 28.9841 34.1566 31.5312 29.0826 38.622C25.6993 43.3504 24.8073 50.2485 26.4046 59.3162L27.7913 51.3187C27.9396 50.4641 28.2847 49.6538 28.8003 48.9492C29.316 48.2446 29.9887 47.6643 30.7674 47.2523C31.5461 46.8403 32.4104 46.6074 33.2947 46.5712C34.179 46.5351 35.0601 46.6966 35.8711 47.0437L36.5585 47.3355C38.3527 48.1032 40.3465 48.304 42.2626 47.9099C44.1787 47.5158 45.9216 46.5464 47.2489 45.1367ZM26.4046 62.8732L26.3191 62.8538C25.6481 62.6904 25.0521 62.3118 24.6262 61.7783C24.2003 61.2448 23.9689 60.587 23.9689 59.9097C23.9689 58.5145 24.9384 57.3022 26.3191 56.9656L26.4046 56.9442V62.8732Z" stroke="#190052" stroke-width="4" stroke-linecap="round" stroke-linejoin="round"/>
<path d="M116.069 20H12C6.47715 20 2 24.4772 2 30V93C2 98.5229 6.47715 103 12 103H125C130.523 103 135 98.5228 135 93V40.9885" stroke="#190052" stroke-width="4" stroke-linecap="square" stroke-linejoin="round"/>
<circle cx="135" cy="20" r="18" stroke="#190052" stroke-width="4"/>
<path d="M141 14L129 26" stroke="#190052" stroke-width="4" stroke-linecap="round" stroke-linejoin="round"/>
<path d="M129 14L141 26" stroke="#190052" stroke-width="4" stroke-linecap="round" stroke-linejoin="round"/>
</svg>