<svg width="117" height="131" viewBox="0 0 117 131" fill="none" xmlns="http://www.w3.org/2000/svg">
<path d="M29.2348 90L8 95.087L15.4609 101.87L70.5565 103L74 91.6957L63.6696 90L61.9478 92.8261L44.7304 97.3478L29.2348 90Z" fill="#AA85FF"/>
<path d="M7 95H74V113H7V95Z" fill="#AA85FF"/>
<path d="M17.1458 29.2836L16 48L26.3125 35.5224H33.7604L48.0833 36.0896L57.8229 29.2836H62.4062L71 38.9254V29.2836L64.6979 21.3433L59.5417 20.209L54.9583 14.5373L42.3542 10L29.1771 14.5373L17.1458 29.2836Z" fill="#AA85FF"/>
<path d="M16.5 81.5V67L26.5 81.5H16.5Z" fill="#AA85FF"/>
<path d="M65.5 81.5L74 68.5L75.5 79.5L65.5 81.5Z" fill="#AA85FF"/>
<path d="M31.7914 85.5771V92.3552L32.3021 92.7731C36.1554 95.9765 41.123 97.6942 46.2298 97.6014C51.3367 97.5085 56.2578 95.6515 59.9719 92.3552V85.2521M31.7914 90.3589C25.6168 90.3589 19.4885 91.241 13.5925 92.9588L7 94.8622M60.0183 90.4054C66.1929 90.4054 66.6416 90.6375 72.5376 92.3552M18.0958 53.8682V62.1784C18.0029 66.6817 19.0707 71.1851 21.3456 75.1777C23.6204 79.1703 26.9631 82.513 31.0022 84.8807L34.7162 87.0627C38.0125 89.0126 41.8194 90.0339 45.6727 90.0339C49.5261 90.0339 53.333 89.0126 56.6292 87.0627L60.3433 84.8807C64.3823 82.513 67.725 79.1703 69.9999 75.1777C72.2747 71.2315 73.4354 66.7282 73.3425 62.1784L72.8318 53.8682C72.5997 52.6147 74.1318 51.5005 75.1531 51.3612C76.9637 51.1291 78.7279 52.5683 79.2386 54.2861C79.7957 56.0038 79.3315 57.9073 78.4958 59.5322C77.2887 61.8999 75.7567 63.7105 73.3425 64.8711M18.0958 53.8682L20.5099 42.5403C20.7885 41.1011 21.3456 39.7548 22.2277 38.5941C23.1098 37.387 24.2704 36.4585 25.5703 35.7621C26.8703 35.0658 28.3559 34.6943 29.8415 34.6479C31.3271 34.5551 32.8128 34.8336 34.2055 35.4372L34.9948 35.7621C38.1517 37.1085 41.6337 37.4799 45.0228 36.7835C48.3654 36.0871 51.4295 34.4158 53.7508 31.9552L56.9078 28.6126L57.1863 28.659C60.5754 29.1697 63.7788 30.7482 66.1929 33.1159C68.6535 35.4836 70.232 38.5477 70.7427 41.8439L72.7854 53.6361M18.0958 53.8682C18.3279 52.6147 16.7959 51.5005 15.7745 51.3612M15.7745 51.3612C14.3353 36.0871 16.9351 29.1697 22.6919 21.1844C31.3271 9.20657 52.0331 4.88896 57.4649 18.1203M15.7745 51.3612C13.9639 51.1291 12.1997 52.5683 11.689 54.2861C11.1319 56.0038 11.5962 57.9073 12.4318 59.5322C13.6389 61.8999 15.1709 63.7105 17.5851 64.8711M57.4649 18.1203C66.3786 21.0916 71.0212 26.7555 71.4391 35.1586C74.3639 40.2654 75.5245 47.8793 75.4317 51.3612M57.4649 18.1203C58.1613 20.4416 58.4862 22.4844 58.4862 24.1557M38.8481 73.2742C43.2122 74.5741 47.9012 74.5741 52.3116 73.2742M45.4406 55.3538V66.1711M15.7281 63.8033C15.5424 69.5601 15.7281 75.4562 15.6352 80.5631C19.3493 81.9559 22.6455 82.0951 26.9631 82.2808M75.7102 63.2927C75.571 68.6316 75.571 74.342 75.4317 79.681C71.7176 81.1202 68.4678 81.6309 64.0573 82.2808" stroke="#190052" stroke-width="4" stroke-linecap="round" stroke-linejoin="round"/>
<circle cx="90" cy="101" r="18" stroke="#190052" stroke-width="4"/>
<path d="M96 95L84 107" stroke="#190052" stroke-width="4" stroke-linecap="round" stroke-linejoin="round"/>
<path d="M84 95L96 107" stroke="#190052" stroke-width="4" stroke-linecap="round" stroke-linejoin="round"/>
</svg>
