<svg xmlns="http://www.w3.org/2000/svg" width="175" height="119" fill="none" viewBox="0 0 175 119">
    <g clip-path="url(#clip0_3080_1314)">
        <path fill="#AA85FF" d="M130.416 55.6723C130.416 54.6973 130.416 53.695 130.416 52.6823C130.796 52.6481 131.191 52.7234 131.658 52.6823C131.658 50.8487 131.658 48.9158 131.658 47.0308C134.106 47.0308 136.363 47.0308 138.555 47.0308C138.555 47.9339 138.555 48.8576 138.555 49.8258C136.853 49.8258 135.026 49.8258 133.047 49.8258C133.047 50.7939 133.047 51.745 133.047 52.6789C133.843 52.6789 134.771 52.6789 135.699 52.6789C135.699 53.6334 135.699 55.6689 135.699 55.6689C135.699 55.6689 138.548 55.6689 139.826 55.6689C139.826 56.6268 139.826 57.571 139.826 58.4947C139.425 58.5152 139.081 58.4742 138.679 58.4947C138.679 60.3421 138.679 64.1805 138.679 64.1805H139.863V67.1671H137.35C137.35 67.1671 137.35 70.9234 137.35 72.8118C136.714 72.8118 136.327 72.8118 135.699 72.8118C135.699 71.8881 135.699 70.9337 135.699 69.9997C135.209 69.9997 134.778 69.9997 134.362 69.9997C134.362 70.9166 134.362 71.8676 134.362 72.8118C133.039 72.8118 131.79 72.8118 130.46 72.8118C130.46 71.9121 130.46 70.9371 130.46 69.9997C129.423 69.9997 128.458 69.9997 127.421 69.9997C127.421 70.9166 127.421 71.8813 127.421 72.8118C127.005 72.8118 126.668 72.8118 126.179 72.8118C126.179 71.9292 126.179 70.9508 126.179 69.9997C125.69 69.9997 125.353 69.9997 124.864 69.9997C124.864 70.9029 124.864 71.8676 124.864 72.8118C122.504 72.8118 120.305 72.8118 118.011 72.8118C118.011 64.2216 118.011 55.6381 118.011 47.0273C120.261 47.0273 122.468 47.0273 124.827 47.0273C124.827 47.9681 124.827 48.8987 124.827 49.8326C124.418 49.8326 124.009 49.8326 123.534 49.8326C123.534 50.3663 123.512 50.8316 123.542 51.2968C123.563 51.7518 123.629 52.6789 123.629 52.6789C123.629 52.6789 124.469 52.6789 124.827 52.6789C124.827 53.6881 124.827 54.6597 124.827 55.6689C124.396 55.6689 123.965 55.6689 123.534 55.6689C123.534 54.7384 123.534 53.6163 123.534 52.6789C123.103 52.5763 122.241 52.6789 122.241 52.6789C122.241 52.6789 122.241 54.6563 122.241 55.6689C121.832 55.686 121.43 55.6689 121.036 55.6689C121.036 56.6166 121.036 58.4947 121.036 58.4947H122.241C122.241 58.4947 122.241 56.4797 122.241 55.6689C122.672 55.6518 123.103 55.6689 123.534 55.6689C123.534 58.4947 123.534 61.3376 123.534 64.1805C123.125 64.1976 122.716 64.1805 122.329 64.1805C122.329 66.1373 122.329 69.9997 122.329 69.9997H123.534C123.534 69.9997 123.534 66.0005 123.534 64.1805C123.965 64.1634 124.396 64.1805 124.864 64.1805C124.9 65.1144 124.9 67.1671 124.9 67.1671L127.311 67.1602C127.311 67.1602 127.311 61.3444 127.311 58.4947C126.873 58.4947 126.537 58.4947 126.113 58.4947C126.113 60.39 126.113 62.3194 126.113 64.1805C125.543 64.1805 125.178 64.1805 124.857 64.1805C124.82 61.3547 124.82 58.4947 124.82 55.6689C126.676 55.6723 128.546 55.6723 130.416 55.6723C130.416 56.5994 130.416 58.4981 130.416 58.4981H131.739C131.739 58.4981 131.739 60.3831 131.739 61.3376C132.623 61.3376 134.325 61.3376 134.325 61.3376C134.325 61.3376 134.354 63.25 134.354 64.1839C134.8 64.1839 135.699 64.1839 135.699 64.1839V61.3376C135.699 61.3376 134.654 61.3376 134.325 61.3376C134.296 60.4105 134.296 58.4981 134.296 58.4981H132.974C132.974 58.4981 132.974 56.6234 132.974 55.6723C132.09 55.6723 131.249 55.6723 130.416 55.6723ZM131.775 64.1839C131.775 64.1839 131.775 68.0566 131.775 70.0031C132.177 70.0031 132.513 70.0031 132.93 70.0031C132.93 68.1318 132.93 66.045 132.93 64.1839H131.775V64.1839ZM119.275 52.6789C119.275 52.6789 119.275 54.8239 119.275 55.6689C119.64 55.7544 119.969 55.5458 120.502 55.6689C120.502 54.5981 120.488 52.6789 120.488 52.6789C120.488 52.6789 120.29 52.7542 120.086 52.6789C119.845 52.7644 119.275 52.6789 119.275 52.6789ZM120.429 69.9997C120.429 69.9997 120.429 68.1455 120.429 67.1808C119.969 67.1979 119.582 67.2116 119.268 67.2218C119.268 68.1181 119.268 69.9997 119.268 69.9997H120.429Z"/>
        <path fill="#AA85FF" d="M76.9589 70C76.1698 70 75.3954 70 74.3945 70C74.3799 70.9203 74.4018 71.8611 74.3945 72.8121C73.4009 72.8121 72.473 72.8121 71.4575 72.8121C71.4575 64.2424 71.4575 55.6453 71.4575 47.0277C72.7945 47.0277 74.1388 47.0277 75.5781 47.0277C75.5781 47.9308 75.5781 48.8956 75.5781 49.8363C75.2274 49.8569 74.8182 49.8124 74.3945 49.8363C74.3945 50.7532 74.3945 51.7384 74.3945 52.6792C75.2128 52.6792 76.1187 52.6792 76.9589 52.6792C76.9589 51.8342 76.9589 49.8363 76.9589 49.8363H78.252V52.6792C78.252 52.6792 79.231 52.6792 79.6548 52.6792C79.6183 52.6929 79.6548 52.6792 79.6548 52.6792V49.8363H80.9918C80.9918 49.8363 80.9918 47.9719 80.9918 47.0277C81.4813 47.0277 82.0438 47.0277 82.4603 47.0277C82.4603 47.9342 82.4603 49.8363 82.4603 49.8363H83.8703C83.8703 49.8363 83.8703 47.9924 83.8703 47.0277C84.3233 47.0174 84.6667 47.0379 85.1415 47.0277C85.1415 47.9821 85.1415 48.899 85.1415 49.8363C85.5507 49.8363 86.1351 49.8363 86.3762 49.8363C86.5297 49.8979 86.3762 49.8363 86.3762 49.8363C86.3762 49.8363 86.3762 51.7487 86.3762 52.6792C86.8657 52.6792 87.421 52.6792 87.9105 52.6792C87.9105 51.8582 87.9105 49.8363 87.9105 49.8363H89.4301C89.4301 49.8363 89.4301 47.9958 89.4301 47.0277C90.7452 46.9421 91.958 47.0721 93.2804 47.0277C93.2804 47.9719 93.2804 49.8363 93.2804 49.8363H92.1114V55.6692H93.3023C93.3023 55.6692 93.3023 57.5645 93.3023 58.495C92.4913 58.495 91.6438 58.495 90.7744 58.495C90.7744 61.3071 90.7744 67.1674 90.7744 67.1674H89.4228V69.9966C89.4228 69.9966 91.0959 69.9966 91.9945 69.9966C91.9945 69.1106 91.9945 68.1321 91.9945 67.1674C92.4475 67.1571 92.8347 67.1777 93.2877 67.1674C93.2877 69.0627 93.2877 70.9306 93.2877 72.8121C91.0447 72.8121 88.7068 72.8121 86.3762 72.8121C86.3762 71.8953 86.3762 70.9682 86.3762 70C85.894 70 85.1415 70 85.1415 70C85.1415 70 85.1635 69.0832 85.1415 68.6213C85.1196 68.1424 85.1415 67.1674 85.1415 67.1674C85.1415 67.1674 84.2283 67.1674 83.8703 67.1674C83.8703 66.1582 83.8703 65.19 83.8703 64.1808C84.2794 64.1808 85.1415 64.1808 85.1415 64.1808V67.1674C85.7698 67.1674 87.2603 67.1674 87.9105 67.1674C87.9105 66.1684 87.9105 64.1808 87.9105 64.1808H86.3762V61.3345C86.3762 61.3345 84.6593 61.3345 83.8703 61.3345C83.8703 59.5008 83.8703 57.5063 83.8703 55.6727C83.8703 55.6453 83.8338 55.6966 83.8703 55.6727C83.9068 55.6453 83.8192 55.6966 83.8703 55.6727C84.2283 55.6727 85.1415 55.6727 85.1415 55.6727V58.4984H86.3762C86.3762 58.4984 86.4055 57.4927 86.3762 57.0308C86.3543 56.5792 86.3762 55.6692 86.3762 55.6692C86.3762 55.6692 85.4703 55.6692 85.1415 55.6692C85.1123 54.7421 85.1415 52.6792 85.1415 52.6792H82.4603V55.6692H80.9918V58.495H79.6548C79.6548 58.495 79.6548 56.5245 79.6548 55.6692C79.253 55.6692 78.7342 55.6692 78.252 55.6692C78.252 56.569 78.252 57.544 78.252 58.495C76.9151 58.495 75.7315 58.495 74.3872 58.495C74.3872 59.4461 74.3872 61.3071 74.3872 61.3071L73.1306 61.3413V64.1774H74.3872V67.164H76.9516C76.9589 67.1708 76.9589 69.0729 76.9589 70ZM87.9105 58.4984V64.1842H89.4301V58.4984H87.9105ZM74.3945 55.6727V52.6792H73.1379V55.6692H74.3945V55.6727ZM89.4301 52.6792V55.6692H90.7817V52.6792H89.4301Z"/>
        <path fill="#AA85FF" d="M2 72.8152C2 64.2147 2 55.6279 2 47.0308C5.52877 47.0308 12.6082 47.0308 12.6082 47.0308V72.8152C12.6082 72.8152 5.68219 72.8152 2 72.8152Z"/>
        <path fill="#AA85FF" d="M150.595 72.8153C147.461 72.8153 144.393 72.8153 141.258 72.8153C141.258 64.2353 141.258 55.6758 141.258 47.0308C144.298 46.9624 147.41 47.065 150.595 47.0308C150.595 55.6348 150.595 64.16 150.595 72.8153Z"/>
        <path fill="#AA85FF" d="M61.8794 67.1706C61.8794 64.29 61.8794 61.3992 61.8794 58.4982C61.4119 58.4982 61.0758 58.4982 60.5936 58.4982C60.5936 60.3661 60.5936 62.3024 60.5936 64.184C60.1114 64.184 59.7753 64.184 59.3662 64.184C59.3662 63.274 59.3662 62.3366 59.3662 61.3582C58.4018 61.3513 57.4959 61.3411 56.59 61.3377C55.6694 61.3342 54.7489 61.3377 53.7626 61.3377C53.7626 60.4037 53.7626 58.4982 53.7626 58.4982C53.7626 58.4982 54.4785 58.5358 54.9315 58.4982C54.9315 57.6019 54.9315 56.5721 54.9315 55.6724C54.5516 55.5698 53.7041 55.6724 53.7041 55.6724C53.7041 55.6724 53.7041 53.6471 53.7041 52.6824C52.7982 52.6824 51.958 52.6824 51.1105 52.6824C51.1105 51.7416 51.1105 50.7803 51.1105 49.8395C51.4685 49.8395 51.8265 49.8395 52.3964 49.8395C52.3964 49.3845 52.3963 48.9261 52.4037 48.4677C52.4037 48.0024 52.4037 47.5269 52.4037 47.0342C52.8274 47.0342 53.1635 47.0342 53.653 47.0342C53.653 47.934 53.653 48.8953 53.653 49.8429C54.1425 49.8429 54.4785 49.8429 54.968 49.8429C54.968 48.9261 54.968 47.975 54.968 47.0342C56.0274 47.0342 56.9406 47.0342 57.9342 47.0342C57.9342 47.9408 57.9342 49.8429 57.9342 49.8429H59.2493C59.2493 49.8429 59.2493 51.7519 59.2493 52.6858C59.7023 52.72 60.0968 52.6482 60.5644 52.6858C60.5644 53.589 60.5644 55.6758 60.5644 55.6758H61.8283C61.8283 55.6758 61.8283 49.9353 61.8283 47.0342C63.3187 47.0342 64.663 47.0342 66.1534 47.0342C66.1534 47.934 66.1534 48.885 66.1534 49.8429C67.505 49.8429 68.7032 49.8429 69.989 49.8429C69.989 50.7735 69.989 52.6858 69.989 52.6858H68.8493V55.6758H70.0402C70.0402 55.6758 70.0402 57.5711 70.0402 58.5016C68.8128 58.5016 67.6073 58.5016 66.3068 58.5016C66.3068 56.6987 66.3068 52.6824 66.3068 52.6824H64.9918C64.9918 52.6824 64.9918 58.4298 64.9918 61.3342C65.81 61.3342 66.5772 61.3342 67.4977 61.3342C67.4977 62.299 67.4977 63.2535 67.4977 64.184C66.6575 64.184 65.8173 64.184 64.926 64.184C64.926 65.1453 64.926 67.1706 64.926 67.1706C64.926 67.1706 62.6685 67.1706 61.8794 67.1706ZM58.0365 58.4982C58.5552 58.4982 58.8986 58.4982 59.3005 58.4982C59.3005 57.9987 59.3005 57.5129 59.3005 57.0477C59.3005 56.5927 59.3005 56.0863 59.3005 55.669C58.7525 55.669 58.4164 55.669 58.0438 55.669C58.0365 56.5995 58.0365 57.5677 58.0365 58.4982ZM56.6411 52.679C56.6411 51.81 56.6411 50.7085 56.6411 49.8361C56.2758 49.7506 55.9397 49.9421 55.4941 49.8361C55.4941 50.8487 55.4941 51.7485 55.4941 52.679C55.8959 52.679 56.232 52.679 56.6411 52.679Z"/>
        <path fill="#AA85FF" d="M105.861 58.4981C105.503 58.4981 104.371 58.4981 104.371 58.4981V61.3102L102.822 61.3376C102.822 61.3376 102.822 63.2944 102.822 64.1839C101.931 64.1839 100.228 64.1839 100.228 64.1839V61.3821H98.9352V64.1839C98.9352 64.1839 99.8922 64.1839 100.228 64.1839C100.258 65.1931 100.228 66.1613 100.228 67.1705C99.3954 67.1705 98.5553 67.1705 97.642 67.1705C97.642 68.1523 97.642 69.0795 97.642 69.9997C97.284 69.9997 96.9772 69.9997 96.4073 69.9997C96.4073 70.4547 96.4073 70.9268 96.4073 71.3852C96.4073 71.8505 96.4073 72.3192 96.4073 72.8152C95.8448 72.8152 95.3187 72.8152 94.7343 72.8152C94.7343 64.2489 94.7343 55.6484 94.7343 47.0308C95.2018 47.0308 95.7717 47.0308 96.4073 47.0308C96.4073 47.9271 96.4073 48.8918 96.4073 49.8394C97.3279 49.8394 98.0219 49.8394 98.9425 49.8394C98.9425 48.926 98.9425 47.975 98.9425 47.0308C99.432 47.0308 99.7461 47.0308 100.236 47.0308C100.236 48.9021 100.236 50.8042 100.236 52.6823C100.725 52.6823 101.083 52.6823 101.492 52.6823C101.492 51.8339 101.492 49.8394 101.492 49.8394H102.822C102.822 49.8394 102.822 47.9647 102.822 47.0308C103.801 47.0308 104.736 47.0308 105.861 47.0308C105.861 47.4481 105.861 47.9202 105.861 48.3787C105.861 48.8166 105.861 49.8394 105.861 49.8394H107.132C107.132 49.8394 107.132 51.8202 107.132 52.6823C106.767 52.7097 106.395 52.6413 105.861 52.6823C105.861 54.6084 105.861 56.5584 105.861 58.4981ZM97.642 58.4981C99.7754 58.4981 102.252 58.4981 104.371 58.4981C104.371 56.555 104.371 52.6789 104.371 52.6789H102.822C102.822 52.6789 102.822 54.7316 102.822 55.6689C101.901 55.6689 101.076 55.6655 100.228 55.6689C99.3954 55.6723 98.4603 55.6621 97.642 55.6689C97.642 56.6576 97.6932 57.5573 97.642 58.4981C97.284 58.4981 96.7945 58.4981 96.4073 58.4981C96.4073 59.4458 96.4073 60.4105 96.4073 61.3102C96.8384 61.3102 97.2548 61.3102 97.642 61.3102C97.642 60.3626 97.5909 59.4594 97.642 58.4981ZM97.642 64.1839H96.4073V67.1705H97.642V64.1839Z"/>
        <path fill="#AA85FF" d="M32.137 61.3376V67.1705C32.137 67.1705 32.9553 67.15 33.3644 67.1705C33.3644 69.0144 33.3644 70.9268 33.3644 72.8152C30.7416 72.8152 28.0603 72.8152 25.3059 72.8152C25.3059 64.2626 25.3059 55.6895 25.3059 47.0308C26.3361 46.9966 27.4612 47.0342 28.5717 47.0308C29.7114 47.0273 30.8511 47.0308 32.137 47.0308C32.137 47.9921 32.137 48.9055 32.137 49.8395C31.7279 49.8395 31.3187 49.8395 30.8438 49.8395C30.8438 50.3731 30.7854 52.6823 30.7854 52.6823C30.7854 52.6823 31.779 52.6823 32.137 52.6823C32.137 53.6916 32.137 54.6631 32.137 55.6723C31.7279 55.6723 31.3187 55.6723 30.8438 55.6723C30.8438 57.5505 30.8438 61.341 30.8438 61.341H32.137V61.3376ZM27.7607 55.6723C27.7607 54.7418 27.7607 52.6823 27.7607 52.6823H26.453L26.5041 55.6723C26.5041 55.6723 27.4685 55.6723 27.8265 55.6723C27.8265 57.5437 27.8265 59.4492 27.8265 61.341C28.3014 61.341 28.6448 61.341 29.1196 61.341C29.1196 59.4526 29.1196 57.5779 29.1196 55.6723C29.5288 55.6723 29.9306 55.6723 30.3251 55.6723C30.3251 54.6597 30.3251 52.6823 30.3251 52.6823H29.1196C29.1196 52.6823 29.1196 54.776 29.1196 55.6723C28.6886 55.6723 28.2575 55.6723 27.7607 55.6723ZM29.1196 67.1705H30.4128L30.3982 64.1839H29.1196V67.1705Z"/>
        <path fill="#AA85FF" d="M41.5982 69.9997C41.6274 70.9063 41.6274 72.8118 41.6274 72.8118H38.6758C38.6758 72.8118 38.6758 69.0555 38.6758 67.1671C37.7918 67.1671 36.9808 67.1671 36.0822 67.1671C36.0822 68.9905 36.0822 72.8118 36.0822 72.8118H34.7233C34.7233 72.8118 34.7233 67.0611 34.7233 64.1805C35.1251 64.1805 35.5343 64.1805 36.0164 64.1805C36.0164 63.1953 36.0164 62.2545 36.0164 61.3342C37.8575 61.3342 39.6986 61.3342 41.6712 61.3342C41.6712 62.3126 41.6712 63.2808 41.6712 64.1805C42.1534 64.1805 42.4895 64.1805 42.8329 64.1805C42.8329 62.2955 42.8329 60.3832 42.8329 58.4947C41.9854 58.4947 41.2183 58.4947 40.3269 58.4947C40.3269 57.5334 40.3269 56.5961 40.3269 55.6689C42.548 55.6689 47.1215 55.6689 47.1215 55.6689L47.2238 58.4947C47.2238 58.4947 45.1635 58.4947 44.3014 58.4947C44.3014 59.4492 44.3014 60.3626 44.3014 61.3034C44.6521 61.3205 44.9954 61.3411 45.4192 61.3616C45.4192 62.2511 45.4192 64.1805 45.4192 64.1805H47.1653V67.1671H45.5215V72.8118H44.3525C44.3525 72.8118 44.2941 72.8324 44.2941 72.8118C44.2868 71.9155 44.2868 70.9645 44.2868 69.9997C43.3078 69.9997 42.4676 69.9997 41.5982 69.9997C41.569 69.0761 41.569 67.1705 41.569 67.1705H40.3269L40.4292 69.9997C40.4292 69.9997 41.2694 69.9997 41.5982 69.9997ZM40.2685 67.1705V64.1839H38.9973L39.1507 67.1705H40.2685V67.1705Z"/>
        <path fill="#AA85FF" d="M115.3 52.6789C115.3 53.5958 115.3 55.6689 115.3 55.6689H114.015V52.6789H112.773V55.6689C112.773 55.6689 113.686 55.6689 114.015 55.6689C114.037 56.5105 114.015 58.4947 114.015 58.4947H112.773C112.773 58.4947 112.773 60.3558 112.773 61.3273C114.015 61.3273 115.257 61.3273 116.542 61.3273C116.542 62.2955 116.542 63.2466 116.542 64.1805C114.884 64.1805 111.019 64.1805 111.019 64.1805V67.1671H112.773V69.9963H114.015C114.015 69.9963 114.015 68.0326 114.015 67.1671C114.424 67.1671 114.884 67.1671 115.3 67.1671C115.271 67.1534 115.3 67.1431 115.3 67.1671C115.308 68.0668 115.3 69.0555 115.3 69.9963C115.783 70.0066 116.104 69.986 116.542 69.9963C116.542 70.9131 116.542 71.8608 116.542 72.8084C114.76 72.8084 112.941 72.8084 111.019 72.8084C111.019 71.8916 111.019 70.9508 111.019 69.9963C110.099 69.9963 109.361 69.9963 108.44 69.9963C108.44 69.0316 108.44 67.1671 108.44 67.1671H109.726V61.3102L108.44 61.3376C108.44 61.3376 108.44 59.4389 108.44 58.4981C109.229 58.4981 111.019 58.4981 111.019 58.4981C111.019 58.4981 111.019 57.6018 111.019 57.1434C111.019 56.6781 111.019 55.6689 111.019 55.6689H109.726V52.6789H108.44C108.44 52.6789 108.44 50.8042 108.44 49.836C109.222 49.836 110.128 49.836 111.019 49.836C111.019 48.8679 111.019 47.9647 111.019 47.0273C112.057 47.0273 112.977 47.0273 114.015 47.0273C114.015 48.8884 114.015 50.7666 114.015 52.6789C114.497 52.6789 114.891 52.6789 115.3 52.6789Z"/>
        <path fill="#AA85FF" d="M51.1032 52.6789C51.1032 53.6539 51.1032 54.6563 51.1032 55.6689C50.7233 55.7031 50.3361 55.6279 49.8758 55.6689C49.8758 59.3842 49.8758 67.1671 49.8758 67.1671H53.6603V69.9963H55.3552C55.3552 69.9963 55.3552 71.9566 55.3552 72.8084C54.3836 72.8084 53.4776 72.8084 52.411 72.8084C52.411 71.8881 52.411 70.9337 52.411 69.9963C51.4904 69.9963 50.7233 69.9963 49.8831 69.9963C49.8831 70.9063 49.8831 72.8084 49.8831 72.8084H48.5826C48.5826 72.8084 48.5826 55.6279 48.5826 47.0239C49.4155 47.0239 50.1826 47.0239 51.1032 47.0239C51.1032 47.9681 51.1032 48.8987 51.1032 49.8326C50.6941 49.8326 50.2849 49.8326 49.81 49.8326C49.81 50.3663 49.7881 50.8281 49.8173 51.2934C49.8393 51.7484 49.905 52.6755 49.905 52.6755C49.905 52.6755 50.7452 52.6789 51.1032 52.6789Z"/>
        <path fill="#AA85FF" d="M36.0164 49.8361C36.0164 50.7666 36.0164 51.7176 36.0164 52.679C37.3461 52.679 40.3269 52.679 40.3269 52.679V55.669C40.3269 55.669 38.369 55.669 37.2658 55.669C37.2658 56.6474 37.2658 57.5882 37.2658 58.4947C36.7982 58.5153 36.4621 58.4742 36.0164 58.4947C36.0164 59.439 36.0164 60.4105 36.0164 61.3342C35.6146 61.3342 35.2055 61.3342 34.7233 61.3342C34.7233 62.3195 34.7233 63.2603 34.7233 64.1805C34.3653 64.1805 33.5251 64.1805 33.5251 64.1805C33.5251 64.1805 33.4301 61.8679 33.4301 61.3342C32.9553 61.3342 32.5461 61.3342 32.137 61.3342C32.137 59.4492 32.137 57.5505 32.137 55.6655C32.9918 55.5937 34.7233 55.6655 34.7233 55.6655C34.7233 55.6655 34.7233 51.6903 34.7233 49.8326C35.1543 49.8361 35.5854 49.8361 36.0164 49.8361Z"/>
        <path fill="#AA85FF" d="M15.6986 47.0308H14.1059V72.8152H15.6986V47.0308Z"/>
        <path fill="#AA85FF" d="M83.8776 69.9997C82.3872 69.9997 82.3726 69.9997 79.6621 69.9997V67.1705H78.2594V61.3376C78.2594 61.3376 80.0932 61.3376 80.9991 61.3376C80.9991 60.3729 80.9991 59.4287 80.9991 58.4982C81.4082 58.4982 81.9927 58.4982 82.4676 58.4982C82.4676 59.0319 82.4676 61.3376 82.4676 61.3376C82.4676 61.3376 83.5196 61.3376 83.8776 61.3376C83.8776 62.2784 83.8776 63.2397 83.8776 64.184C82.3361 64.184 80.7288 64.184 79.6621 64.184C79.6621 64.7484 79.6402 65.2308 79.6621 65.7269C79.684 66.2161 79.6621 67.1705 79.6621 67.1705C82.3726 67.1705 82.3872 67.1705 83.8776 67.1705C83.8776 68.1113 83.8776 69.059 83.8776 69.9997Z"/>
        <path fill="#AA85FF" d="M18.2703 72.8152C17.8831 72.8152 17.547 72.8152 17.1306 72.8152C17.1306 64.2181 17.1306 55.6381 17.1306 47.0308C17.5178 47.0308 17.8612 47.0308 18.2703 47.0308C18.2703 55.6279 18.2703 64.2079 18.2703 72.8152Z"/>
        <path fill="#AA85FF" d="M19.7096 47.0308C20.1114 47.0308 20.4475 47.0308 20.8566 47.0308C20.8566 55.6347 20.8566 64.2113 20.8566 72.8152C20.4548 72.8152 20.1187 72.8152 19.7096 72.8152C19.7096 64.2113 19.7096 55.6347 19.7096 47.0308Z"/>
        <path fill="#AA85FF" d="M45.4265 49.836C44.579 49.836 43.8119 49.836 42.9644 49.836C42.9644 50.77 42.9644 51.7142 42.9644 52.6789C42.5041 52.6892 42.1169 52.6687 41.6493 52.6789C41.6493 51.7894 41.6493 49.836 41.6493 49.836H38.6685C38.6685 49.836 38.6685 47.8792 38.6685 47.0273C40.9406 47.0273 43.1397 47.0273 45.4265 47.0273C45.4265 47.9339 45.4265 48.8302 45.4265 49.836Z"/>
        <path fill="#AA85FF" d="M67.4831 67.1705C67.4831 69.0179 67.4831 70.9097 67.4831 72.8153C66.6064 72.9179 65.6932 72.805 64.7945 72.8153C63.874 72.8255 62.9461 72.8153 61.8795 72.8153C61.8795 71.854 61.8795 70.0032 61.8795 70.0032H66.1826C66.1826 70.0032 66.1753 68.019 66.1973 67.174C66.7671 67.1705 67.1251 67.1705 67.4831 67.1705Z"/>
        <path fill="#AA85FF" d="M108.44 67.1705C107.6 67.1705 106.731 67.1705 105.861 67.1705C105.861 66.1511 105.861 65.1829 105.861 64.184C106.227 64.1566 106.643 64.2216 107.132 64.184C107.132 63.2569 107.132 62.2648 107.132 61.3376C107.563 61.3376 108.009 61.3376 108.44 61.3376C108.44 63.2876 108.44 65.2205 108.44 67.1705Z"/>
        <path fill="#AA85FF" d="M58 67.1705C58.358 67.1705 59.2566 67.1705 59.2566 67.1705V68.5526V69.9997C59.2566 69.9997 60.1772 69.9997 60.5863 69.9997C60.5863 70.9063 60.5863 71.854 60.5863 72.8118C59.7753 72.8118 58.9571 72.8118 58 72.8118C58 70.9611 58 69.0418 58 67.1705Z"/>
        <path fill="#AA85FF" d="M127.472 49.8326C127.757 49.8326 128.115 49.8326 128.685 49.8326C128.685 49.3776 128.692 48.9226 128.692 48.4642C128.692 47.9989 128.692 47.5234 128.692 47.0308C129.262 47.0308 129.737 47.0308 130.321 47.0308C130.321 47.9305 130.321 48.861 130.321 49.8052C129.978 49.8223 129.635 49.8394 129.145 49.8634C129.145 50.7768 129.145 51.7416 129.145 52.6823C128.51 52.6823 128.035 52.6823 127.472 52.6823C127.472 51.7381 127.472 50.7666 127.472 49.8326Z"/>
        <path fill="#AA85FF" d="M57.9342 64.184H55.0338V67.1705H57.9342V64.184Z"/>
        <path fill="#AA85FF" d="M51.1763 58.4982C51.5854 58.4982 51.9215 58.4982 52.3233 58.4982C52.3233 60.3763 52.3233 62.3092 52.3233 64.184C51.9142 64.184 51.5781 64.184 51.1763 64.184C51.1763 62.3058 51.1763 60.3729 51.1763 58.4982Z"/>
        <path fill="#AA85FF" d="M102.822 69.9998H104.363C104.363 69.9998 104.363 71.9155 104.363 72.8119C103.903 72.8221 103.421 72.7982 102.822 72.8119C102.822 71.854 102.822 69.9998 102.822 69.9998Z"/>
        <path fill="#AA85FF" d="M67.4831 64.184C67.8411 64.184 68.6959 64.184 68.6959 64.184L68.7763 67.1705C68.7763 67.1705 67.8922 67.1705 67.4831 67.1705C67.4831 66.1613 67.4831 65.1932 67.4831 64.184Z"/>
        <path fill="#AA85FF" d="M36.0676 49.836C36.0676 48.9431 36.0676 47.9784 36.0676 47.0273C36.4548 47.0273 36.7909 47.0273 37.2146 47.0273C37.2146 47.9305 37.2146 48.885 37.2146 49.836C36.8347 49.836 36.4256 49.836 36.0676 49.836Z"/>
        <path fill="#AA85FF" d="M127.399 49.8326C126.968 49.8326 126.537 49.8326 126.106 49.8326C126.106 48.9021 126.106 47.975 126.106 47.0273C126.581 47.0273 126.924 47.0273 127.399 47.0273C127.399 47.975 127.399 48.9021 127.399 49.8326Z"/>
        <path fill="#AA85FF" d="M32.137 49.8361C32.568 49.8361 32.9991 49.8361 33.4301 49.8361C33.4301 50.2979 33.4228 52.6824 33.4228 52.6824L32.137 52.679C32.137 52.679 32.137 50.7803 32.137 49.8361Z"/>
        <path fill="#AA85FF" d="M107.132 58.4982C107.132 57.5676 107.132 56.6166 107.132 55.6724C107.607 55.6724 107.958 55.6724 108.44 55.6724C108.44 56.62 108.44 57.5676 108.44 58.4982C108.009 58.4982 107.563 58.4982 107.132 58.4982Z"/>
        <path fill="#AA85FF" d="M126.106 49.8326C126.106 50.7529 126.106 51.6937 126.106 52.679C125.624 52.679 125.215 52.679 124.813 52.679C124.813 51.7382 124.813 50.7734 124.813 49.8326C125.244 49.8326 125.675 49.8326 126.106 49.8326Z"/>
        <path fill="#AA85FF" d="M60.5863 69.9997C60.5863 69.0795 60.5863 67.1705 60.5863 67.1705C60.5863 67.1705 61.4776 67.1705 61.8795 67.1705C61.8795 68.1113 61.8795 69.059 61.8795 69.9997C61.4484 69.9997 61.0174 69.9997 60.5863 69.9997Z"/>
        <path fill="#AA85FF" d="M107.132 61.3376C106.782 61.3376 105.861 61.3376 105.861 61.3376C105.861 61.3376 105.89 60.3797 105.861 59.9008C105.839 59.439 105.861 58.4982 105.861 58.4982C105.861 58.4982 106.701 58.4982 107.132 58.4982C107.132 59.439 107.132 60.3969 107.132 61.3376Z"/>
        <path fill="#AA85FF" d="M33.4301 49.836C33.4301 48.9055 33.4301 47.975 33.4301 47.0273C33.905 47.0273 34.2484 47.0273 34.7233 47.0273C34.7233 47.975 34.7233 48.9055 34.7233 49.836C34.2922 49.836 33.8612 49.836 33.4301 49.836Z"/>
        <path fill="#AA85FF" d="M115.3 52.679C115.3 51.7861 115.3 50.7871 115.3 49.8361C115.688 49.8361 116.111 49.8361 116.542 49.8361C116.542 50.7392 116.542 51.7313 116.542 52.679C116.155 52.679 115.658 52.679 115.3 52.679Z"/>
        <path fill="#AA85FF" d="M76.9589 69.9998C77.2584 69.9998 78.252 69.9998 78.252 69.9998V72.8119H76.9589C76.9589 72.8153 76.9589 70.9269 76.9589 69.9998Z"/>
        <path fill="#AA85FF" d="M85.1415 69.9998C85.1415 70.9303 85.1415 71.8676 85.1415 72.8119C84.6667 72.8119 84.3525 72.8119 83.8703 72.8119C83.8703 71.8642 83.8703 70.9303 83.8703 69.9998C84.3087 69.9998 84.7105 69.9998 85.1415 69.9998Z"/>
        <path fill="#AA85FF" d="M97.642 69.9998C97.9416 69.9998 98.9425 69.9998 98.9425 69.9998C98.9425 69.9998 98.9206 70.9132 98.9425 71.3648C98.9717 71.8266 98.9425 72.3055 98.9425 72.8119C98.526 72.8119 98.0804 72.8119 97.642 72.8119C97.642 71.8813 97.642 70.9269 97.642 69.9998Z"/>
        <path fill="#AA85FF" d="M100.228 67.1705C100.528 67.1705 101.485 67.1705 101.485 67.1705V69.9997C101.485 69.9997 100.674 69.9997 100.228 69.9997C100.228 69.0692 100.228 68.0942 100.228 67.1705Z"/>
        <path fill="#AA85FF" d="M124.813 49.8326C124.813 50.7734 124.813 51.7382 124.813 52.679C124.455 52.679 124.097 52.679 123.615 52.679C123.417 52.2342 123.549 51.7519 123.527 51.2969C123.505 50.8316 123.52 50.3663 123.52 49.8326C123.995 49.8326 124.404 49.8326 124.813 49.8326Z"/>
        <path fill="#AA85FF" d="M97.642 58.4982C97.642 59.3911 97.642 60.3626 97.642 61.3103C97.2548 61.3103 96.8384 61.3103 96.4073 61.3103C96.4073 60.4071 96.4073 59.4458 96.4073 58.4982C96.7945 58.4982 97.284 58.4982 97.642 58.4982Z"/>
        <path fill="#AA85FF" d="M29.1196 55.6724C29.1196 57.5437 29.1196 59.4492 29.1196 61.341C28.6447 61.341 28.3014 61.341 27.8265 61.341C27.8265 59.4526 27.8265 57.5471 27.8265 55.6724C28.2575 55.6724 28.6886 55.6724 29.1196 55.6724Z"/>
        <path fill="#AA85FF" d="M36.0164 61.3376C36.0164 60.4105 36.0164 59.4424 36.0164 58.4982C36.4548 58.4776 36.7909 58.5187 37.2658 58.4982C37.2658 57.5916 37.2658 56.6474 37.2658 55.6724C38.369 55.6724 39.348 55.6724 40.3269 55.6724C40.3269 56.5995 40.3269 57.5403 40.3269 58.4982C41.2183 58.4982 41.9854 58.4982 42.8329 58.4982C42.8329 60.3866 42.8329 62.2989 42.8329 64.1839C42.4895 64.1839 42.1534 64.1839 41.6712 64.1839C41.6712 63.2876 41.6712 62.316 41.6712 61.3376C39.6986 61.3376 37.8575 61.3376 36.0164 61.3376Z"/>
        <path fill="#AA85FF" d="M34.7233 64.184C34.7233 63.2637 34.7233 62.3229 34.7233 61.3376C35.2055 61.3376 35.6146 61.3376 36.0164 61.3376C36.0164 62.2579 36.0164 63.1987 36.0164 64.184C35.5343 64.184 35.1324 64.184 34.7233 64.184Z"/>
        <path fill="#AA85FF" d="M107.132 61.3376C107.132 60.3969 107.132 59.439 107.132 58.4982C107.563 58.4982 108.009 58.4982 108.44 58.4982C108.44 59.439 108.44 60.3969 108.44 61.3376C108.009 61.3376 107.563 61.3376 107.132 61.3376Z"/>
    </g>
    <rect width="150" height="26" x="2" y="47" stroke="#190052" stroke-width="2.5"/>
    <!-- This uses a path instead of a masked stroke for the corner (x) which means width isn't adjustable -->
    <path class="icon-color-stroke" fill="#190052" d="M128.049 23L130.045 23.1314L128.049 23ZM152 46.9508L151.869 44.9551L152 46.9508ZM158.929 19.4142C159.71 18.6332 159.71 17.3668 158.929 16.5858C158.148 15.8047 156.881 15.8047 156.1 16.5858L158.929 19.4142ZM142.586 30.1003C141.805 30.8814 141.805 32.1477 142.586 32.9288C143.367 33.7098 144.633 33.7098 145.414 32.9288L142.586 30.1003ZM145.414 16.5858C144.633 15.8047 143.367 15.8047 142.586 16.5858C141.805 17.3668 141.805 18.6332 142.586 19.4142L145.414 16.5858ZM156.1 32.9288C156.881 33.7098 158.148 33.7098 158.929 32.9288C159.71 32.1477 159.71 30.8814 158.929 30.1003L156.1 32.9288ZM142 115H12V119H142V115ZM4 107V33H0V107H4ZM12 115C7.58172 115 4 111.418 4 107H0C0 113.627 5.37258 119 12 119V115ZM150 107C150 111.418 146.418 115 142 115V119C148.627 119 154 113.627 154 107H150ZM12 21C5.37259 21 0 26.3726 0 33H4C4 28.5817 7.58172 25 12 25V21ZM150.5 45C139.178 45 130 35.8218 130 24.5H126C126 38.031 136.969 49 150.5 49V45ZM150.5 4C161.822 4 171 13.1782 171 24.5H175C175 10.969 164.031 0 150.5 0V4ZM130 24.5C130 24.0398 130.015 23.5835 130.045 23.1314L126.054 22.8686C126.018 23.4081 126 23.9521 126 24.5H130ZM130.045 23.1314C130.748 12.4486 139.638 4 150.5 4V0C137.517 0 126.894 10.0973 126.054 22.8686L130.045 23.1314ZM12 25H128.049V21H12V25ZM171 24.5C171 35.3618 162.551 44.252 151.869 44.9551L152.131 48.9465C164.903 48.1059 175 37.4829 175 24.5H171ZM151.869 44.9551C151.417 44.9849 150.96 45 150.5 45V49C151.048 49 151.592 48.982 152.131 48.9465L151.869 44.9551ZM150 46.9508V107H154V46.9508H150ZM156.1 16.5858L149.343 23.3431L152.171 26.1715L158.929 19.4142L156.1 16.5858ZM149.343 23.3431L142.586 30.1003L145.414 32.9288L152.171 26.1715L149.343 23.3431ZM142.586 19.4142L149.343 26.1715L152.171 23.3431L145.414 16.5858L142.586 19.4142ZM149.343 26.1715L156.1 32.9288L158.929 30.1003L152.171 23.3431L149.343 26.1715Z"/>
    <path stroke="#190052" stroke-linecap="round" stroke-width="2.5" d="M15 87H72M15 97H86"/>
    <defs>
        <clipPath id="clip0_3080_1314">
            <rect width="150" height="26" fill="white" transform="translate(2 47)"/>
        </clipPath>
    </defs>
</svg>
