<svg width="74" height="46" viewBox="0 0 74 46" fill="none" xmlns="http://www.w3.org/2000/svg">
<g filter="url(#filter0_d)">
<path d="M23.3788 14.8362C22.6812 15.5492 21.7652 16.0394 20.7582 16.2388C19.7512 16.4381 18.7034 16.3365 17.7605 15.9483L17.3992 15.8007C16.973 15.6252 16.5099 15.5435 16.0452 15.5617C15.5804 15.58 15.1262 15.6978 14.717 15.9062C14.3077 16.1146 13.9542 16.4081 13.6832 16.7644C13.4122 17.1207 13.2308 17.5305 13.1529 17.9628L12.4241 22.0075C11.5846 17.4215 12.0534 13.9328 13.8315 11.5414C16.4982 7.95531 22.9068 6.66711 24.592 10.6114C27.3537 11.5001 28.7945 13.1997 28.9146 15.7091C29.8157 17.2375 29.9754 19.3366 29.3949 22.0075L28.7089 17.699C28.5529 16.7192 28.0699 15.8116 27.3299 15.1079C26.5898 14.4041 25.6312 13.9409 24.5931 13.7852L24.4312 13.7606L23.3788 14.8362ZM8.90234 32.7953C16.7754 30.8595 25.0436 30.8595 32.9166 32.7953V37.7159H8.90234V32.7953Z" fill="#8652FF"/>
</g>
<path d="M16.5864 30.5545V32.2029L16.7451 32.3308C17.9329 33.2887 19.4511 33.8044 21.014 33.7808C22.577 33.7572 24.0769 33.1961 25.2316 32.2029V30.7041M16.5864 31.6036C14.6757 31.6036 13.1451 31.8653 11.3127 32.379L9.27148 32.9528M25.6012 31.6036C27.5119 31.6036 29.4122 31.8653 31.2446 32.379L33.2858 32.9528M12.3542 20.8078L12.4236 23.7425C12.4236 25.0491 12.7731 26.3346 13.4398 27.4801C14.1064 28.6257 15.0687 29.5944 16.2377 30.2967L17.5 31.0544C18.5185 31.6663 19.7012 31.9913 20.909 31.9913C22.1168 31.9913 23.2995 31.6663 24.318 31.0544L25.5814 30.2967C26.7501 29.5943 27.7122 28.6255 28.3787 27.48C29.0451 26.3344 29.3945 25.049 29.3944 23.7425V20.2075M12.3542 20.8078L12.7483 20.8187C12.0227 20.9889 11.0741 21.602 11.0741 22.3076C11.0741 22.6502 11.1957 22.9828 11.4196 23.2527C11.6556 23.5371 11.9876 23.7261 12.3542 23.8064V20.8078ZM12.4236 22.3076H12.1041M29.7139 22.3076H29.3944M29.764 23.8064L29.8089 23.7966C30.1616 23.714 30.4748 23.5225 30.6987 23.2527C30.9225 22.9828 31.0441 22.6502 31.0441 22.3076C31.0441 21.602 30.5346 20.9889 29.8089 20.8187L29.764 20.8078V23.8064ZM23.7479 14.8362L24.8004 13.7606L24.9622 13.7852C26.0004 13.9409 26.959 14.4041 27.699 15.1079C28.4391 15.8116 28.9221 16.7192 29.0781 17.699L29.764 22.0075C30.3445 19.3366 30.1848 17.2375 29.2837 15.7091C29.1637 13.1997 27.7228 11.5001 24.9612 10.6114C23.276 6.66711 16.8673 7.95531 14.2007 11.5414C12.4226 13.9328 11.9538 17.4215 12.7932 22.0075L13.522 17.9628C13.6 17.5305 13.7813 17.1207 14.0523 16.7644C14.3233 16.4081 14.6768 16.1146 15.0861 15.9062C15.4953 15.6978 15.9496 15.58 16.4143 15.5617C16.8791 15.5435 17.3421 15.6252 17.7684 15.8007L18.1296 15.9483C19.0725 16.3365 20.1204 16.4381 21.1274 16.2388C22.1344 16.0394 23.0504 15.5492 23.7479 14.8362Z" stroke="black" stroke-width="2" stroke-linecap="round" stroke-linejoin="round"/>
<g filter="url(#filter1_d)">
<path d="M39.0009 10H59.0009M39.0009 15H49.0009M39 20H54M57.5 36H61M46 36H54M55 32L61.1072 32.0543M50 32H52M43 32H46.5" stroke="#8652FF" stroke-width="2" stroke-linecap="round" stroke-linejoin="round"/>
</g>
<rect x="1" y="1" width="72" height="44" rx="4" stroke="black" stroke-width="2"/>
<defs>
<filter id="filter0_d" x="4.90234" y="6.19238" width="32.0137" height="37.5234" filterUnits="userSpaceOnUse" color-interpolation-filters="sRGB">
<feFlood flood-opacity="0" result="BackgroundImageFix"/>
<feColorMatrix in="SourceAlpha" type="matrix" values="0 0 0 0 0 0 0 0 0 0 0 0 0 0 0 0 0 0 127 0" result="hardAlpha"/>
<feOffset dy="2"/>
<feGaussianBlur stdDeviation="2"/>
<feColorMatrix type="matrix" values="0 0 0 0 0.0802127 0 0 0 0 0.512457 0 0 0 0 0.387471 0 0 0 0.24 0"/>
<feBlend mode="normal" in2="BackgroundImageFix" result="effect1_dropShadow"/>
<feBlend mode="normal" in="SourceGraphic" in2="effect1_dropShadow" result="shape"/>
</filter>
<filter id="filter1_d" x="34" y="7" width="32.1074" height="36" filterUnits="userSpaceOnUse" color-interpolation-filters="sRGB">
<feFlood flood-opacity="0" result="BackgroundImageFix"/>
<feColorMatrix in="SourceAlpha" type="matrix" values="0 0 0 0 0 0 0 0 0 0 0 0 0 0 0 0 0 0 127 0" result="hardAlpha"/>
<feOffset dy="2"/>
<feGaussianBlur stdDeviation="2"/>
<feColorMatrix type="matrix" values="0 0 0 0 0.0802127 0 0 0 0 0.512457 0 0 0 0 0.387471 0 0 0 0.24 0"/>
<feBlend mode="normal" in2="BackgroundImageFix" result="effect1_dropShadow"/>
<feBlend mode="normal" in="SourceGraphic" in2="effect1_dropShadow" result="shape"/>
</filter>
</defs>
</svg>
