<?xml version="1.0" encoding="UTF-8"?>
<svg id="Layer_1" xmlns="http://www.w3.org/2000/svg" version="1.1" viewBox="0 0 8.5 14.5">
  <!-- Generator: Adobe Illustrator 29.3.1, SVG Export Plug-In . SVG Version: 2.1.0 Build 151)  -->
  <path d="M8.13,6.37L2.13.37.37,2.13l6,6,1.77-1.77ZM2.13,14.13l6-6-1.77-1.77L.37,12.37l1.77,1.77ZM2.13.37C1.65-.12.85-.12.37.37-.12.85-.12,1.65.37,2.13L2.13.37ZM7.25,7.25l.88.88c.49-.49.49-1.28,0-1.77l-.88.88ZM.37,12.37c-.49.49-.49,1.28,0,1.77s1.28.49,1.77,0l-1.77-1.77Z" fill="black"/>
</svg>