<svg role="img" aria-hidden="true" width="32" height="32" viewBox="0 0 32 32" fill="none" xmlns="http://www.w3.org/2000/svg">
<rect width="32" height="32" rx="16" fill="#631FFF"/>
<path d="M17.3381 9.3335H11.9993C11.6457 9.3335 11.3066 9.47397 11.0565 9.72402C10.8065 9.97407 10.666 10.3132 10.666 10.6668V21.3335C10.666 21.6871 10.8065 22.0263 11.0565 22.2763C11.3066 22.5264 11.6457 22.6668 11.9993 22.6668H19.9993C20.353 22.6668 20.6921 22.5264 20.9422 22.2763C21.1922 22.0263 21.3327 21.6871 21.3327 21.3335V13.7691M17.3381 9.3335L21.3327 13.7691M17.3381 9.3335V13.7691H21.3327" stroke="white" stroke-width="1.5" stroke-linecap="round" stroke-linejoin="round"/>
<path d="M18.6673 16.6665H13.334" stroke="white" stroke-width="1.5" stroke-linecap="round" stroke-linejoin="round"/>
<path d="M18.6673 19.3335H13.334" stroke="white" stroke-width="1.5" stroke-linecap="round" stroke-linejoin="round"/>
<path d="M14.6673 14H14.0007H13.334" stroke="white" stroke-width="1.5" stroke-linecap="round" stroke-linejoin="round"/>
</svg>
