<svg xmlns="http://www.w3.org/2000/svg" width="27" height="27" viewBox="0 0 27 27" fill="none">
<g xmlns="http://www.w3.org/2000/svg" transform="matrix(1.3333333,0,0,-1.3333333,0,26.666667)" id="g10"><g id="g12"><path id="path14" style="fill:#FFFFFF;fill-opacity:1;fill-rule:nonzero;stroke:none" d="M 20,10 C 20,4.477153 15.522847,0 10,0 4.477152,0 0,4.477153 0,10 c 0,5.522848 4.477152,10 10,10 5.522847,0 10,-4.477152 10,-10 z"/></g><g transform="translate(6.667969,5.019775)" id="g16"><path id="path18" style="fill:#6A6D81;fill-opacity:1;fill-rule:nonzero;stroke:none" d="m 7.196996,7.78278 c 0.292894,0.292893 0.292894,0.767768 0,1.06066 -0.292893,0.292893 -0.767767,0.292893 -1.06066,0 z M -0.53033,2.176774 c -0.292893,-0.292893 -0.292893,-0.767767 0,-1.06066 0.292893,-0.292893 0.767767,-0.292893 1.06066,0 z M 6.136336,8.84344 -0.53033,2.176774 0.53033,1.116114 7.196996,7.78278 Z"/></g><g transform="translate(6.667969,5.019775)" id="g20"><path id="path22" style="fill:#6A6D81;fill-opacity:1;fill-rule:nonzero;stroke:none" d="m 0.53033,8.84344 c -0.292893,0.292893 -0.767767,0.292893 -1.06066,0 -0.292893,-0.292892 -0.292893,-0.767767 0,-1.06066 z M 6.136336,1.116114 c 0.292893,-0.292893 0.767767,-0.292893 1.06066,0 0.292894,0.292893 0.292894,0.767767 0,1.06066 z M -0.53033,7.78278 6.136336,1.116114 7.196996,2.176774 0.53033,8.84344 Z"/></g></g></svg>