<?xml version="1.0" encoding="UTF-8"?>
<svg width="77px" height="97px" viewBox="0 0 77 97" version="1.1" xmlns="http://www.w3.org/2000/svg" xmlns:xlink="http://www.w3.org/1999/xlink">
    <!-- Generator: Sketch 56.2 (81672) - https://sketch.com -->
    <title>Group</title>
    <desc>Created with Sketch.</desc>
    <g id="Icons" stroke="none" stroke-width="1" fill="none" fill-rule="evenodd">
        <g transform="translate(-580.000000, -608.000000)" id="Group">
            <g transform="translate(575.000000, 604.000000)">
                <polygon id="Rectangle" points="5.68434189e-14 0 88 0 88 108 5.68434189e-14 108"></polygon>
                <path d="M74.5742344,90.92134 C72.4988922,92.4370502 70.3193462,93.8008245 68.0500333,94.99995 C60.5828667,98.9458625 52.3486333,101 44,101 C35.6512567,101 27.41717,98.9458625 19.9498567,94.99995 C15.6597407,92.732958 11.6904025,89.8774898 8.13939208,86.5194453 L9.81841659,85.7498924 C15.2093552,83.2790455 24.0697974,83 30,83 L30,85 L30.493221,85.4247181 C38.1582039,92.02512 49.5504141,91.8425826 57,85 C63.1897575,85.8440578 69.1525315,87.8569234 74.5742344,90.92134 Z M79.3428042,87.0028412 L74.6204366,85.586131 C68.9040989,83.8712297 62.9680318,83 57,83 C62.9302026,83 71.7906448,83.2790455 77.1815834,85.7498924 L79.5323648,86.8273339 C79.4693065,86.8859934 79.4061191,86.9444959 79.3428031,87.002841 Z M58.0001083,51.5 L58,51.5 L53.5001083,52 C53.8334416,41 50.6667749,34 44.0001083,31 C35.3334416,34 28.0001083,33.5 22.0001083,29.5 C13.0001083,23.5 19.5001083,5.5 34.5001083,5 C49.5001083,4.5 64.0001083,9 69.0001083,23 C87.5001083,38 78.0001083,67 69.0001083,70 C65.7566712,67.4052503 63.4545248,63.8176663 62.4471225,59.788057 L62.0001083,58 L61.758902,57.6080504 C63.755805,56.4581169 65.0001083,54.323569 65.0001083,52 L65.0001083,51.5 C65.0001083,49.5670034 63.4331049,48 61.5001083,48 C59.5671117,48 58.0001083,49.5670034 58.0001083,51.5 Z" id="Path-9" fill="#ffffff" fill-rule="nonzero"></path>
                <path d="M57,79.5 L57,85 L56.506779,85.4247181 C48.8417961,92.02512 37.4495859,91.8425826 30,85 L30,85 L30,81 M28,89 L28.5501021,89.4142469 C37.607393,96.234717 50.131601,96.064335 59,89 L59,89 M30,83 C24.0319682,83 18.0959011,83.8712297 12.3795634,85.586131 L6,87.5 M57,83 C62.9680318,83 68.9040989,83.8712297 74.6204366,85.586131 L81,87.5 M62.0001083,58 L62.4471225,59.788057 C63.4545248,63.8176663 65.7566712,67.4052503 69.0001083,70 L69.0001083,70 C78.0001083,67 87.5001083,38 69.0001083,23 C64.0001083,9 49.5001083,4.5 34.5001083,5 C19.5001083,5.5 13.0001083,23.5 22.0001083,29.5 C28.0001083,33.5 35.3334416,34 44.0001083,31 C50.6667749,34 53.8334416,41 53.5001083,52 M69.0001083,23 C65.7267028,25.6666667 60.9233333,27.6666667 54.59,29 M37.0001083,68 L34.3529766,68.814502 C31.8947852,69.5708687 29.2331641,69.2760319 27.0001083,68 L27.0001083,68 M59.0001083,59 L61.4223995,57.7888544 C63.6150558,56.6925262 65.0001083,54.4514643 65.0001083,52 L65.0001083,51.5 C65.0001083,49.5670034 63.4331049,48 61.5001083,48 C59.5671117,48 58.0001083,49.5670034 58.0001083,51.5 L58.0001083,51.5 M69.0001083,70 C63.8139549,76.1585572 56.7298993,80.4210255 48.8595488,82.1185521 L46.4536885,82.6374631 C39.5226401,84.1323951 32.286807,82.429359 26.7501083,78 C21.336853,73.6693957 18.6498666,66.776571 19.7039801,59.9248331 L20.837278,52.5583965 C21.6113681,47.5268112 22.0001083,42.4434606 22.0001083,37.3526781 L22.0001083,30.5" id="Oval-6" stroke="#ffffff" stroke-width="2" stroke-linecap="round" stroke-linejoin="round" fill-rule="nonzero"></path>
            </g>
        </g>
    </g>
</svg>
