<?xml version="1.0" encoding="UTF-8"?>
<svg width="77px" height="97px" viewBox="0 0 77 97" version="1.1" xmlns="http://www.w3.org/2000/svg" xmlns:xlink="http://www.w3.org/1999/xlink">
    <!-- Generator: Sketch 56.2 (81672) - https://sketch.com -->
    <title>Group</title>
    <desc>Created with Sketch.</desc>
    <g id="Icons" stroke="none" stroke-width="1" fill="none" fill-rule="evenodd">
        <g transform="translate(-756.000000, -608.000000)" id="Group">
            <g transform="translate(751.000000, 604.000000)">
                <polygon id="Rectangle" points="5.68434189e-14 0 88 0 88 108 5.68434189e-14 108"></polygon>
                <path d="M74.5742344,90.92134 C72.4988922,92.4370502 70.3193462,93.8008245 68.0500333,94.99995 C60.5828667,98.9458625 52.3486333,101 44,101 C35.6512567,101 27.41717,98.9458625 19.9498567,94.99995 C15.6597407,92.732958 11.6904025,89.8774898 8.13939208,86.5194453 L9.81841659,85.7498924 C15.2093552,83.2790455 24.0697974,83 30,83 L30,85 L30.493221,85.4247181 C38.1582039,92.02512 49.5504141,91.8425826 57,85 C63.1897575,85.8440578 69.1525315,87.8569234 74.5742344,90.92134 Z M79.3428042,87.0028412 L74.6204366,85.586131 C68.9040989,83.8712297 62.9680318,83 57,83 C62.9302026,83 71.7906448,83.2790455 77.1815834,85.7498924 L79.5323648,86.8273339 C79.4693065,86.8859934 79.4061191,86.9444959 79.3428031,87.002841 Z M30,51.5 C30,49.5670034 28.4329966,48 26.5,48 C24.5670034,48 23,49.5670034 23,51.5 L23,52 C23,54.3235672 24.2443013,56.4581135 26.2412015,57.6080476 L26,58 L25.5529857,59.788057 C24.5455834,63.8176663 22.2434371,67.4052503 19,70 C10,67 0.5,38 19,23 C24,9 38.5,4.5 53.5,5 C68.5,5.5 75,23.5 66,29.5 C57,35.5 54,26.5 44,31 C37.3333333,34 34.1666667,41 34.5,52 L30,51.5 Z" id="Path-9" fill="#ffffff" fill-rule="nonzero"></path>
                <path d="M30,79.5 L30,85 L30.493221,85.4247181 C38.1582039,92.02512 49.5504141,91.8425826 57,85 L57,85 L57,81 M28,89 L28.5501021,89.4142469 C37.607393,96.234717 50.131601,96.064335 59,89 L59,89 M30,83 C24.0319682,83 18.0959011,83.8712297 12.3795634,85.586131 L6,87.5 M57,83 C62.9680318,83 68.9040989,83.8712297 74.6204366,85.586131 L81,87.5 M19,70 C24.1861534,76.1585572 31.270209,80.4210255 39.1405595,82.1185521 L41.5464198,82.6374631 C48.4774682,84.1323951 55.7133013,82.429359 61.25,78 C66.6632553,73.6693957 69.3502417,66.776571 68.2961282,59.9248331 L67.1628302,52.5583965 C66.3887402,47.5268112 66,42.4434606 66,37.3526781 L66,30.5 M29,59 L26.5777088,57.7888544 C24.3850525,56.6925262 23,54.4514643 23,52 L23,51.5 C23,49.5670034 24.5670034,48 26.5,48 C28.4329966,48 30,49.5670034 30,51.5 L30,51.5 M51,68 L53.6471316,68.814502 C56.1053231,69.5708687 58.7669442,69.2760319 61,68 L61,68 M26,58 L25.5529857,59.788057 C24.5455834,63.8176663 22.2434371,67.4052503 19,70 L19,70 C10,67 0.5,38 19,23 C24,9 38.5,4.5 53.5,5 C68.5,5.5 75,23.5 66,29.5 C57,35.5 54,26.5 44,31 C37.3333333,34 34.1666667,41 34.5,52 M19,23 L22,26" id="Oval-6" stroke="#ffffff" stroke-width="2" stroke-linecap="round" stroke-linejoin="round" fill-rule="nonzero"></path>
            </g>
        </g>
    </g>
</svg>
