<svg width="366" height="160" viewBox="0 0 366 160" fill="none" xmlns="http://www.w3.org/2000/svg">
<rect width="366" height="160" rx="8" fill="#F1EBFF"/>
<g transform="translate(139, 52)scale(0.5,0.5)">
    <g clip-path="url(#clip0_226_18)">
      <path fill="white" stroke="#190052" stroke-linecap="round" stroke-linejoin="round" stroke-width="8" d="M0.00012207 10C0.00012207 4.47715 4.47727 0 10.0001 0H154C159.523 0 164 4.47715 164 10V94C164 99.5229 159.523 104 154 104H10.0001C4.47727 104 0.00012207 99.5229 0.00012207 94V10Z" class="icon-color-background"/>
      <path fill="white" fill-rule="evenodd" d="M65.5715 53.9059L65.6738 53.8827C66.4771 53.6874 67.1905 53.2348 67.7004 52.597C68.2103 51.9593 68.4872 51.1729 68.4872 50.3633C68.4872 48.6955 67.3267 47.2463 65.6738 46.8439L65.5715 46.8183V53.9059ZM51.8682 32.7037L54.2654 30.1612L54.6341 30.2194C56.9988 30.5873 59.1822 31.6824 60.8679 33.3457C62.5535 35.009 63.6537 37.1542 64.009 39.4702L64.7903 44.562L65.5715 49.6538C66.8938 43.3408 66.5299 38.3793 64.4775 34.7669C64.204 28.8354 60.9221 24.8182 54.6317 22.7178C50.7932 13.3948 36.1957 16.4397 30.1217 24.9159C27.1184 29.1073 25.755 34.7247 26.0304 41.7683C26.1264 44.2235 26.4216 46.852 26.9158 49.6538L28.5758 40.0936C28.7534 39.072 29.1665 38.1033 29.7837 37.2611C30.401 36.4189 31.2063 35.7252 32.1385 35.2327C33.0706 34.7401 34.1053 34.4617 35.1638 34.4185C36.2224 34.3753 37.2772 34.5684 38.2481 34.9832L39.0709 35.3321C41.2187 36.2498 43.6055 36.4898 45.8992 36.0187C48.1929 35.5476 50.2793 34.3888 51.8682 32.7037ZM25.9158 53.9059C25.0808 53.716 24.3245 53.2694 23.787 52.597C23.2771 51.9593 23.0001 51.1729 23.0001 50.3633C23.0001 48.6955 24.263 47.2208 25.9158 46.8183V53.9059Z" clip-rule="evenodd"/>
      <path fill="white" d="M35.5559 69.8559V73.7521L35.9174 74.0545C38.6228 76.3185 42.0809 77.5374 45.641 77.4817C49.2011 77.426 52.6176 76.0996 55.2476 73.7521V70.2095V69.7424L53.1667 71.0376C50.8467 72.4837 48.1528 73.2519 45.4018 73.2519C42.6507 73.2519 39.9568 72.4837 37.6368 71.0376L35.5559 69.7413V69.8559Z"/>
      <path fill="white" d="M25.9158 46.8183L26.0739 53.7547C26.074 56.843 26.8701 59.8815 28.3885 62.5892C29.907 65.297 32.0989 67.5866 34.7616 69.2465L35.5559 69.7413L37.6368 71.0376C39.9568 72.4837 42.6507 73.2519 45.4018 73.2519C48.1528 73.2519 50.8467 72.4837 53.1667 71.0376L55.2476 69.7424L56.0443 69.2465C58.7066 67.5863 60.898 65.2966 62.416 62.5888C63.9341 59.8811 64.7298 56.8428 64.7296 53.7547V50.3633V45.3994L64.7903 44.562L64.009 39.4702C63.6537 37.1542 62.5535 35.009 60.8679 33.3457C59.1822 31.6824 56.9988 30.5873 54.6341 30.2194L54.2654 30.1612L51.8682 32.7037C50.2793 34.3888 48.1929 35.5476 45.8992 36.0187C43.6055 36.4898 41.2187 36.2498 39.0709 35.3321L38.2481 34.9832C37.2772 34.5684 36.2224 34.3753 35.1638 34.4185C34.1053 34.4617 33.0706 34.7401 32.1385 35.2327C31.2063 35.7252 30.401 36.4189 29.7837 37.2611C29.1665 38.1033 28.7534 39.072 28.5758 40.0936L26.9158 49.6538C26.4216 46.852 26.1264 44.2235 26.0304 41.7683L25.9158 46.8183Z" class="icon-color-highlight"/>
      <path fill="#AA85FF" d="M50.9742 32.7037C49.3854 34.3888 47.2989 35.5476 45.0052 36.0187C42.7115 36.4898 40.3247 36.2498 38.177 35.3321L37.3541 34.9832C36.3832 34.5684 35.3285 34.3753 34.2699 34.4185C33.2113 34.4617 32.1767 34.7401 31.2445 35.2327C30.3123 35.7252 29.5071 36.4189 28.8898 37.2611C28.2725 38.1033 27.8594 39.072 27.6819 40.0936L26.0219 49.6538C24.1098 38.8143 25.1776 30.5683 29.2277 24.9159C35.3017 16.4397 49.8993 13.3948 53.7377 22.7178C60.0281 24.8182 63.3101 28.8354 63.5836 34.7669C65.636 38.3793 65.9999 43.3408 64.6776 49.6538L63.1151 39.4702C62.7598 37.1542 61.6596 35.009 59.9739 33.3457C58.2883 31.6823 56.1048 30.5873 53.7401 30.2194L53.3715 30.1612L50.9742 32.7037ZM18.0001 75.1524C35.9331 70.5768 54.7663 70.5768 72.6993 75.1524V86.7829H18.0001V75.1524Z"/>
      <path stroke="#190052" stroke-linecap="round" stroke-linejoin="round" stroke-width="4" d="M85.7797 21.985H132.155M85.7797 33.6155H108.373M85.7797 45.2459H120.264M128.588 82.4633H136.912M102.427 82.4633H120.264M123.831 73.159H136.912M111.94 73.159H115.508M95.2926 73.159H103.616M35.504 69.8559V73.7521L35.8655 74.0545C38.5709 76.3185 42.029 77.5374 45.5891 77.4817C49.1492 77.426 52.5657 76.0996 55.1957 73.7521V70.2095M35.504 72.3355C31.1518 72.3355 27.6654 72.9543 23.4916 74.1685L18.8422 75.5246M56.0376 72.3355C60.3898 72.3355 64.7182 72.9543 68.892 74.1685L73.5414 75.5246M25.8639 46.8183L26.022 53.7547C26.0221 56.843 26.8182 59.8815 28.3366 62.5892C29.8551 65.297 32.047 67.5866 34.7097 69.2465L37.5849 71.0376C39.9049 72.4837 42.5988 73.2519 45.3499 73.2519C48.1009 73.2519 50.7948 72.4837 53.1148 71.0376L55.9924 69.2465C58.6546 67.5863 60.8461 65.2966 62.3641 62.5888C63.8822 59.8811 64.6779 56.8428 64.6777 53.7547V45.3994M25.8639 46.8183L26.7617 46.8439C25.1088 47.2463 22.9482 48.6955 22.9482 50.3633C22.9482 51.1729 23.2252 51.9593 23.7351 52.597C24.2726 53.2694 25.0289 53.716 25.8639 53.9059V46.8183ZM26.022 50.3633H25.2943M65.4054 50.3633H64.6777M65.5196 53.9059L65.6219 53.8827C66.4252 53.6874 67.1386 53.2348 67.6485 52.597C68.1584 51.9593 68.4353 51.1729 68.4353 50.3633C68.4353 48.6955 67.2748 47.2463 65.6219 46.8439L65.5196 46.8183V53.9059ZM51.8163 32.7037L54.2135 30.1612L54.5822 30.2194C56.9469 30.5873 59.1303 31.6824 60.816 33.3457C62.5016 35.009 63.6018 37.1542 63.9571 39.4702L65.5196 49.6538C66.8419 43.3408 66.478 38.3793 64.4256 34.7669C64.1521 28.8354 60.8702 24.8182 54.5798 22.7178C50.7413 13.3948 36.1438 16.4397 30.0698 24.9159C26.0197 30.5683 24.9518 38.8143 26.8639 49.6538L28.5239 40.0936C28.7015 39.072 29.1145 38.1033 29.7318 37.2611C30.3491 36.4189 31.1544 35.7252 32.0866 35.2327C33.0187 34.7401 34.0534 34.4617 35.1119 34.4185C36.1705 34.3753 37.2253 34.5684 38.1962 34.9832L39.019 35.3321C41.1668 36.2498 43.5536 36.4898 45.8473 36.0187C48.141 35.5476 50.2274 34.3888 51.8163 32.7037Z"/>
    </g>
    <defs>
        <clipPath id="clip0_226_18">
            <path fill="white" d="M0.00012207 10C0.00012207 4.47715 4.47727 0 10.0001 0H154C159.523 0 164 4.47715 164 10V94C164 99.5229 159.523 104 154 104H10.0001C4.47727 104 0.00012207 99.5229 0.00012207 94V10Z"/>
        </clipPath>
    </defs>
</g>
</svg>
