<svg width="366" height="160" viewBox="0 0 366 160" fill="none" xmlns="http://www.w3.org/2000/svg">
<rect width="366" height="160" rx="8" fill="#F1EBFF"/>
<g transform="translate(142, 41)">
<rect x="1.5" y="1" width="74.1905" height="78" rx="3" fill="#AA85FF"/>
<rect x="1.5" y="1" width="74.1905" height="78" rx="3" stroke="#190052" stroke-width="2"/>
<rect class="icon-color-background" x="1.5" y="6.71428" width="74.1905" height="72.2857" rx="3" fill="white"/>
<rect x="1.5" y="6.71428" width="74.1905" height="72.2857" rx="3" stroke="#190052" stroke-width="2"/>
<rect class="icon-color-background" x="1.5" y="12.4286" width="74.1905" height="66.5714" rx="3" fill="white"/>
<path d="M2.40479 33.3333H41.4524" stroke="#190052" stroke-width="2" stroke-linecap="round" stroke-linejoin="round"/>
<path d="M42.4048 45.7143H65.2619" stroke="#190052" stroke-width="2" stroke-linecap="round" stroke-linejoin="round"/>
<path d="M42.4048 52.381H61.4524" stroke="#190052" stroke-width="2" stroke-linecap="round" stroke-linejoin="round"/>
<path d="M42.4048 59.0476H65.2619" stroke="#190052" stroke-width="2" stroke-linecap="round" stroke-linejoin="round"/>
<path d="M42.4048 65.7143H57.6429" stroke="#190052" stroke-width="2" stroke-linecap="round" stroke-linejoin="round"/>
<path d="M48.119 33.3333H57.6428" stroke="#190052" stroke-width="2" stroke-linecap="round" stroke-linejoin="round"/>
<path d="M64.3095 33.3333H73.8333" stroke="#190052" stroke-width="2" stroke-linecap="round" stroke-linejoin="round"/>
<path d="M24.4827 47.8226C23.7702 48.5598 22.8346 49.0668 21.8061 49.2729C20.7775 49.479 19.7072 49.374 18.7442 48.9725L18.3752 48.8199C17.9398 48.6384 17.4668 48.5539 16.9921 48.5728C16.5175 48.5917 16.0535 48.7135 15.6355 48.929C15.2175 49.1445 14.8564 49.4479 14.5796 49.8164C14.3028 50.1849 14.1176 50.6087 14.038 51.0556L13.2936 55.2381C12.4362 50.4959 12.915 46.8884 14.7311 44.4155C17.4548 40.7072 24.0007 39.3752 25.7219 43.4538C28.5426 44.3728 30.0143 46.1302 30.137 48.7252C31.0573 50.3056 31.2205 52.4762 30.6275 55.2381L29.9269 50.7829C29.7676 49.7696 29.2742 48.8311 28.5183 48.1034C27.7625 47.3758 26.7834 46.8967 25.723 46.7357L25.5577 46.7103L24.4827 47.8226Z" fill="#AA85FF"/>
<path d="M17.5665 65.0884V66.8675L17.7301 67.0056C18.9548 68.0394 20.5203 68.596 22.1319 68.5706C23.7436 68.5452 25.2902 67.9395 26.4808 66.8675V65.2498M17.9476 66.2207C15.9774 66.2207 14.018 66.5032 12.1286 67.0577L10.0238 67.6769M26.8619 66.2207C28.8321 66.2207 30.7915 66.5032 32.6809 67.0577L34.7857 67.6769M13.2741 53.9206V57.736C13.2741 59.1462 13.6345 60.5337 14.3219 61.7701C15.0093 63.0066 16.0015 64.0521 17.2069 64.8101L18.5085 65.628C19.5587 66.2883 20.7782 66.6391 22.0236 66.6391C23.269 66.6391 24.4885 66.2883 25.5387 65.628L26.8414 64.8101C28.0466 64.052 29.0386 63.0064 29.7258 61.77C30.4131 60.5335 30.7733 59.1461 30.7732 57.736V53.9206M13.2741 56.1873H12.9446M31.1026 56.1873H30.7732M31.1543 57.805L31.2006 57.7944C31.5643 57.7052 31.8872 57.4986 32.118 57.2073C32.3489 56.9161 32.4742 56.557 32.4742 56.1873C32.4742 55.4257 31.9489 54.764 31.2006 54.5802L31.1543 54.5686V57.805ZM24.9509 48.1233L26.0361 46.9623L26.203 46.9889C27.2735 47.1569 28.2619 47.6569 29.025 48.4164C29.7881 49.176 30.2862 50.1555 30.447 51.2131L31.1543 55.8634C31.7529 52.9806 31.5882 50.715 30.6591 49.0654C30.5353 46.3569 29.0496 44.5225 26.2019 43.5633C24.4643 39.3061 17.8561 40.6965 15.1065 44.5671C13.273 47.1482 12.7896 50.9136 13.6552 55.8634L14.4067 51.4978C14.487 51.0313 14.674 50.589 14.9535 50.2044C15.2329 49.8198 15.5974 49.503 16.0194 49.2781C16.4414 49.0532 16.9098 48.9261 17.389 48.9063C17.8682 48.8866 18.3457 48.9748 18.7852 49.1642L19.1577 49.3235C20.13 49.7426 21.2105 49.8522 22.2488 49.637C23.2871 49.4219 24.2317 48.8928 24.9509 48.1233ZM13.6552 57.805L13.6089 57.7944C13.2452 57.7052 12.9223 57.4986 12.6915 57.2073C12.4607 56.9161 12.3353 56.557 12.3353 56.1873C12.3353 55.4257 12.8607 54.764 13.6089 54.5802L13.6552 54.5686V57.805Z" stroke="#190052" stroke-width="2" stroke-linecap="round" stroke-linejoin="round"/>
<rect x="1.5" y="12.4286" width="74.1905" height="66.5714" rx="3" stroke="#190052" stroke-width="2"/>
</g>
</svg>
